%
M48
M72
T01C0.02362
T02C0.03150
T03C0.03937
T04C0.05118
%
T01
X13311Y195165
X48744Y175480
X52681Y167606
X63921Y185894
X88114Y193197
X111736Y195165
X147169Y175480
X151106Y167606
X162346Y185894
X186539Y193197
X111736Y96740
X88114Y94772
X52681Y69181
X48744Y77055
X13311Y96740
X63921Y87469
X147169Y77055
X151106Y69181
X162346Y87469
X186539Y94772
T02
X17248Y18000
X25122Y18000
X32996Y18000
X40870Y18000
X60555Y18000
X68429Y18000
X76303Y18000
X84177Y18000
X82209Y37685
X90083Y37685
X74335Y37685
X66461Y37685
X58587Y37685
X50713Y37685
X42839Y37685
X34965Y37685
X27091Y37685
X19217Y37685
X11343Y37685
X68429Y116425
X60555Y116425
X76303Y116425
X84177Y116425
X82209Y136110
X90083Y136110
X74335Y136110
X66461Y136110
X58587Y136110
X50713Y136110
X42839Y136110
X34965Y136110
X27091Y136110
X19217Y136110
X11343Y136110
X17248Y116425
X25122Y116425
X32996Y116425
X40870Y116425
X109768Y136110
X117642Y136110
X125516Y136110
X133390Y136110
X141264Y136110
X149138Y136110
X157012Y136110
X164886Y136110
X172760Y136110
X180634Y136110
X188508Y136110
X182602Y116425
X174728Y116425
X166854Y116425
X158980Y116425
X139295Y116425
X131421Y116425
X123547Y116425
X115673Y116425
X164886Y37685
X172760Y37685
X180634Y37685
X188508Y37685
X182602Y18000
X174728Y18000
X166854Y18000
X158980Y18000
X139295Y18000
X131421Y18000
X123547Y18000
X115673Y18000
X117642Y37685
X125516Y37685
X133390Y37685
X141264Y37685
X149138Y37685
X157012Y37685
X109768Y37685
T03
X38902Y171543
X137327Y171543
X137327Y73118
X38902Y73118
T04
X68429Y73118
X166854Y73118
X166854Y171543
X68429Y171543
M30
