G75*
%MOIN*%
%OFA0B0*%
%FSLAX25Y25*%
%IPPOS*%
%LPD*%
%AMOC8*
5,1,8,0,0,1.08239X$1,22.5*
%
%ADD10C,0.00000*%
%ADD11R,0.05150X0.05150*%
%ADD12C,0.05150*%
%ADD13C,0.05600*%
%ADD14R,0.16929X0.09055*%
%ADD15R,0.14409X0.09055*%
%ADD16C,0.01181*%
%ADD17R,0.03937X0.04331*%
%ADD18C,0.01600*%
%ADD19OC8,0.03562*%
%ADD20C,0.02400*%
D10*
X0001500Y0006189D02*
X0001500Y0203039D01*
X0198350Y0203039D01*
X0198350Y0006189D01*
X0001500Y0006189D01*
X0036933Y0073118D02*
X0036935Y0073206D01*
X0036941Y0073294D01*
X0036951Y0073382D01*
X0036965Y0073470D01*
X0036982Y0073556D01*
X0037004Y0073642D01*
X0037029Y0073726D01*
X0037059Y0073810D01*
X0037091Y0073892D01*
X0037128Y0073972D01*
X0037168Y0074051D01*
X0037212Y0074128D01*
X0037259Y0074203D01*
X0037309Y0074275D01*
X0037363Y0074346D01*
X0037419Y0074413D01*
X0037479Y0074479D01*
X0037541Y0074541D01*
X0037607Y0074601D01*
X0037674Y0074657D01*
X0037745Y0074711D01*
X0037817Y0074761D01*
X0037892Y0074808D01*
X0037969Y0074852D01*
X0038048Y0074892D01*
X0038128Y0074929D01*
X0038210Y0074961D01*
X0038294Y0074991D01*
X0038378Y0075016D01*
X0038464Y0075038D01*
X0038550Y0075055D01*
X0038638Y0075069D01*
X0038726Y0075079D01*
X0038814Y0075085D01*
X0038902Y0075087D01*
X0038990Y0075085D01*
X0039078Y0075079D01*
X0039166Y0075069D01*
X0039254Y0075055D01*
X0039340Y0075038D01*
X0039426Y0075016D01*
X0039510Y0074991D01*
X0039594Y0074961D01*
X0039676Y0074929D01*
X0039756Y0074892D01*
X0039835Y0074852D01*
X0039912Y0074808D01*
X0039987Y0074761D01*
X0040059Y0074711D01*
X0040130Y0074657D01*
X0040197Y0074601D01*
X0040263Y0074541D01*
X0040325Y0074479D01*
X0040385Y0074413D01*
X0040441Y0074346D01*
X0040495Y0074275D01*
X0040545Y0074203D01*
X0040592Y0074128D01*
X0040636Y0074051D01*
X0040676Y0073972D01*
X0040713Y0073892D01*
X0040745Y0073810D01*
X0040775Y0073726D01*
X0040800Y0073642D01*
X0040822Y0073556D01*
X0040839Y0073470D01*
X0040853Y0073382D01*
X0040863Y0073294D01*
X0040869Y0073206D01*
X0040871Y0073118D01*
X0040869Y0073030D01*
X0040863Y0072942D01*
X0040853Y0072854D01*
X0040839Y0072766D01*
X0040822Y0072680D01*
X0040800Y0072594D01*
X0040775Y0072510D01*
X0040745Y0072426D01*
X0040713Y0072344D01*
X0040676Y0072264D01*
X0040636Y0072185D01*
X0040592Y0072108D01*
X0040545Y0072033D01*
X0040495Y0071961D01*
X0040441Y0071890D01*
X0040385Y0071823D01*
X0040325Y0071757D01*
X0040263Y0071695D01*
X0040197Y0071635D01*
X0040130Y0071579D01*
X0040059Y0071525D01*
X0039987Y0071475D01*
X0039912Y0071428D01*
X0039835Y0071384D01*
X0039756Y0071344D01*
X0039676Y0071307D01*
X0039594Y0071275D01*
X0039510Y0071245D01*
X0039426Y0071220D01*
X0039340Y0071198D01*
X0039254Y0071181D01*
X0039166Y0071167D01*
X0039078Y0071157D01*
X0038990Y0071151D01*
X0038902Y0071149D01*
X0038814Y0071151D01*
X0038726Y0071157D01*
X0038638Y0071167D01*
X0038550Y0071181D01*
X0038464Y0071198D01*
X0038378Y0071220D01*
X0038294Y0071245D01*
X0038210Y0071275D01*
X0038128Y0071307D01*
X0038048Y0071344D01*
X0037969Y0071384D01*
X0037892Y0071428D01*
X0037817Y0071475D01*
X0037745Y0071525D01*
X0037674Y0071579D01*
X0037607Y0071635D01*
X0037541Y0071695D01*
X0037479Y0071757D01*
X0037419Y0071823D01*
X0037363Y0071890D01*
X0037309Y0071961D01*
X0037259Y0072033D01*
X0037212Y0072108D01*
X0037168Y0072185D01*
X0037128Y0072264D01*
X0037091Y0072344D01*
X0037059Y0072426D01*
X0037029Y0072510D01*
X0037004Y0072594D01*
X0036982Y0072680D01*
X0036965Y0072766D01*
X0036951Y0072854D01*
X0036941Y0072942D01*
X0036935Y0073030D01*
X0036933Y0073118D01*
X0065870Y0073118D02*
X0065872Y0073219D01*
X0065878Y0073320D01*
X0065888Y0073421D01*
X0065902Y0073521D01*
X0065920Y0073620D01*
X0065942Y0073719D01*
X0065967Y0073817D01*
X0065997Y0073914D01*
X0066030Y0074009D01*
X0066067Y0074103D01*
X0066108Y0074196D01*
X0066152Y0074287D01*
X0066200Y0074376D01*
X0066252Y0074463D01*
X0066307Y0074548D01*
X0066365Y0074630D01*
X0066426Y0074711D01*
X0066491Y0074789D01*
X0066558Y0074864D01*
X0066628Y0074936D01*
X0066702Y0075006D01*
X0066778Y0075073D01*
X0066856Y0075137D01*
X0066937Y0075197D01*
X0067020Y0075254D01*
X0067106Y0075308D01*
X0067194Y0075359D01*
X0067283Y0075406D01*
X0067374Y0075450D01*
X0067467Y0075489D01*
X0067562Y0075526D01*
X0067657Y0075558D01*
X0067754Y0075587D01*
X0067853Y0075611D01*
X0067951Y0075632D01*
X0068051Y0075649D01*
X0068151Y0075662D01*
X0068252Y0075671D01*
X0068353Y0075676D01*
X0068454Y0075677D01*
X0068555Y0075674D01*
X0068656Y0075667D01*
X0068757Y0075656D01*
X0068857Y0075641D01*
X0068956Y0075622D01*
X0069055Y0075599D01*
X0069152Y0075573D01*
X0069249Y0075542D01*
X0069344Y0075508D01*
X0069437Y0075470D01*
X0069530Y0075428D01*
X0069620Y0075383D01*
X0069709Y0075334D01*
X0069795Y0075282D01*
X0069879Y0075226D01*
X0069962Y0075167D01*
X0070041Y0075105D01*
X0070119Y0075040D01*
X0070193Y0074972D01*
X0070265Y0074900D01*
X0070334Y0074827D01*
X0070400Y0074750D01*
X0070463Y0074671D01*
X0070523Y0074589D01*
X0070579Y0074505D01*
X0070632Y0074419D01*
X0070682Y0074331D01*
X0070728Y0074241D01*
X0070771Y0074150D01*
X0070810Y0074056D01*
X0070845Y0073961D01*
X0070876Y0073865D01*
X0070904Y0073768D01*
X0070928Y0073670D01*
X0070948Y0073571D01*
X0070964Y0073471D01*
X0070976Y0073370D01*
X0070984Y0073270D01*
X0070988Y0073169D01*
X0070988Y0073067D01*
X0070984Y0072966D01*
X0070976Y0072866D01*
X0070964Y0072765D01*
X0070948Y0072665D01*
X0070928Y0072566D01*
X0070904Y0072468D01*
X0070876Y0072371D01*
X0070845Y0072275D01*
X0070810Y0072180D01*
X0070771Y0072086D01*
X0070728Y0071995D01*
X0070682Y0071905D01*
X0070632Y0071817D01*
X0070579Y0071731D01*
X0070523Y0071647D01*
X0070463Y0071565D01*
X0070400Y0071486D01*
X0070334Y0071409D01*
X0070265Y0071336D01*
X0070193Y0071264D01*
X0070119Y0071196D01*
X0070041Y0071131D01*
X0069962Y0071069D01*
X0069879Y0071010D01*
X0069795Y0070954D01*
X0069708Y0070902D01*
X0069620Y0070853D01*
X0069530Y0070808D01*
X0069437Y0070766D01*
X0069344Y0070728D01*
X0069249Y0070694D01*
X0069152Y0070663D01*
X0069055Y0070637D01*
X0068956Y0070614D01*
X0068857Y0070595D01*
X0068757Y0070580D01*
X0068656Y0070569D01*
X0068555Y0070562D01*
X0068454Y0070559D01*
X0068353Y0070560D01*
X0068252Y0070565D01*
X0068151Y0070574D01*
X0068051Y0070587D01*
X0067951Y0070604D01*
X0067853Y0070625D01*
X0067754Y0070649D01*
X0067657Y0070678D01*
X0067562Y0070710D01*
X0067467Y0070747D01*
X0067374Y0070786D01*
X0067283Y0070830D01*
X0067194Y0070877D01*
X0067106Y0070928D01*
X0067020Y0070982D01*
X0066937Y0071039D01*
X0066856Y0071099D01*
X0066778Y0071163D01*
X0066702Y0071230D01*
X0066628Y0071300D01*
X0066558Y0071372D01*
X0066491Y0071447D01*
X0066426Y0071525D01*
X0066365Y0071606D01*
X0066307Y0071688D01*
X0066252Y0071773D01*
X0066200Y0071860D01*
X0066152Y0071949D01*
X0066108Y0072040D01*
X0066067Y0072133D01*
X0066030Y0072227D01*
X0065997Y0072322D01*
X0065967Y0072419D01*
X0065942Y0072517D01*
X0065920Y0072616D01*
X0065902Y0072715D01*
X0065888Y0072815D01*
X0065878Y0072916D01*
X0065872Y0073017D01*
X0065870Y0073118D01*
X0135358Y0073118D02*
X0135360Y0073206D01*
X0135366Y0073294D01*
X0135376Y0073382D01*
X0135390Y0073470D01*
X0135407Y0073556D01*
X0135429Y0073642D01*
X0135454Y0073726D01*
X0135484Y0073810D01*
X0135516Y0073892D01*
X0135553Y0073972D01*
X0135593Y0074051D01*
X0135637Y0074128D01*
X0135684Y0074203D01*
X0135734Y0074275D01*
X0135788Y0074346D01*
X0135844Y0074413D01*
X0135904Y0074479D01*
X0135966Y0074541D01*
X0136032Y0074601D01*
X0136099Y0074657D01*
X0136170Y0074711D01*
X0136242Y0074761D01*
X0136317Y0074808D01*
X0136394Y0074852D01*
X0136473Y0074892D01*
X0136553Y0074929D01*
X0136635Y0074961D01*
X0136719Y0074991D01*
X0136803Y0075016D01*
X0136889Y0075038D01*
X0136975Y0075055D01*
X0137063Y0075069D01*
X0137151Y0075079D01*
X0137239Y0075085D01*
X0137327Y0075087D01*
X0137415Y0075085D01*
X0137503Y0075079D01*
X0137591Y0075069D01*
X0137679Y0075055D01*
X0137765Y0075038D01*
X0137851Y0075016D01*
X0137935Y0074991D01*
X0138019Y0074961D01*
X0138101Y0074929D01*
X0138181Y0074892D01*
X0138260Y0074852D01*
X0138337Y0074808D01*
X0138412Y0074761D01*
X0138484Y0074711D01*
X0138555Y0074657D01*
X0138622Y0074601D01*
X0138688Y0074541D01*
X0138750Y0074479D01*
X0138810Y0074413D01*
X0138866Y0074346D01*
X0138920Y0074275D01*
X0138970Y0074203D01*
X0139017Y0074128D01*
X0139061Y0074051D01*
X0139101Y0073972D01*
X0139138Y0073892D01*
X0139170Y0073810D01*
X0139200Y0073726D01*
X0139225Y0073642D01*
X0139247Y0073556D01*
X0139264Y0073470D01*
X0139278Y0073382D01*
X0139288Y0073294D01*
X0139294Y0073206D01*
X0139296Y0073118D01*
X0139294Y0073030D01*
X0139288Y0072942D01*
X0139278Y0072854D01*
X0139264Y0072766D01*
X0139247Y0072680D01*
X0139225Y0072594D01*
X0139200Y0072510D01*
X0139170Y0072426D01*
X0139138Y0072344D01*
X0139101Y0072264D01*
X0139061Y0072185D01*
X0139017Y0072108D01*
X0138970Y0072033D01*
X0138920Y0071961D01*
X0138866Y0071890D01*
X0138810Y0071823D01*
X0138750Y0071757D01*
X0138688Y0071695D01*
X0138622Y0071635D01*
X0138555Y0071579D01*
X0138484Y0071525D01*
X0138412Y0071475D01*
X0138337Y0071428D01*
X0138260Y0071384D01*
X0138181Y0071344D01*
X0138101Y0071307D01*
X0138019Y0071275D01*
X0137935Y0071245D01*
X0137851Y0071220D01*
X0137765Y0071198D01*
X0137679Y0071181D01*
X0137591Y0071167D01*
X0137503Y0071157D01*
X0137415Y0071151D01*
X0137327Y0071149D01*
X0137239Y0071151D01*
X0137151Y0071157D01*
X0137063Y0071167D01*
X0136975Y0071181D01*
X0136889Y0071198D01*
X0136803Y0071220D01*
X0136719Y0071245D01*
X0136635Y0071275D01*
X0136553Y0071307D01*
X0136473Y0071344D01*
X0136394Y0071384D01*
X0136317Y0071428D01*
X0136242Y0071475D01*
X0136170Y0071525D01*
X0136099Y0071579D01*
X0136032Y0071635D01*
X0135966Y0071695D01*
X0135904Y0071757D01*
X0135844Y0071823D01*
X0135788Y0071890D01*
X0135734Y0071961D01*
X0135684Y0072033D01*
X0135637Y0072108D01*
X0135593Y0072185D01*
X0135553Y0072264D01*
X0135516Y0072344D01*
X0135484Y0072426D01*
X0135454Y0072510D01*
X0135429Y0072594D01*
X0135407Y0072680D01*
X0135390Y0072766D01*
X0135376Y0072854D01*
X0135366Y0072942D01*
X0135360Y0073030D01*
X0135358Y0073118D01*
X0164295Y0073118D02*
X0164297Y0073219D01*
X0164303Y0073320D01*
X0164313Y0073421D01*
X0164327Y0073521D01*
X0164345Y0073620D01*
X0164367Y0073719D01*
X0164392Y0073817D01*
X0164422Y0073914D01*
X0164455Y0074009D01*
X0164492Y0074103D01*
X0164533Y0074196D01*
X0164577Y0074287D01*
X0164625Y0074376D01*
X0164677Y0074463D01*
X0164732Y0074548D01*
X0164790Y0074630D01*
X0164851Y0074711D01*
X0164916Y0074789D01*
X0164983Y0074864D01*
X0165053Y0074936D01*
X0165127Y0075006D01*
X0165203Y0075073D01*
X0165281Y0075137D01*
X0165362Y0075197D01*
X0165445Y0075254D01*
X0165531Y0075308D01*
X0165619Y0075359D01*
X0165708Y0075406D01*
X0165799Y0075450D01*
X0165892Y0075489D01*
X0165987Y0075526D01*
X0166082Y0075558D01*
X0166179Y0075587D01*
X0166278Y0075611D01*
X0166376Y0075632D01*
X0166476Y0075649D01*
X0166576Y0075662D01*
X0166677Y0075671D01*
X0166778Y0075676D01*
X0166879Y0075677D01*
X0166980Y0075674D01*
X0167081Y0075667D01*
X0167182Y0075656D01*
X0167282Y0075641D01*
X0167381Y0075622D01*
X0167480Y0075599D01*
X0167577Y0075573D01*
X0167674Y0075542D01*
X0167769Y0075508D01*
X0167862Y0075470D01*
X0167955Y0075428D01*
X0168045Y0075383D01*
X0168134Y0075334D01*
X0168220Y0075282D01*
X0168304Y0075226D01*
X0168387Y0075167D01*
X0168466Y0075105D01*
X0168544Y0075040D01*
X0168618Y0074972D01*
X0168690Y0074900D01*
X0168759Y0074827D01*
X0168825Y0074750D01*
X0168888Y0074671D01*
X0168948Y0074589D01*
X0169004Y0074505D01*
X0169057Y0074419D01*
X0169107Y0074331D01*
X0169153Y0074241D01*
X0169196Y0074150D01*
X0169235Y0074056D01*
X0169270Y0073961D01*
X0169301Y0073865D01*
X0169329Y0073768D01*
X0169353Y0073670D01*
X0169373Y0073571D01*
X0169389Y0073471D01*
X0169401Y0073370D01*
X0169409Y0073270D01*
X0169413Y0073169D01*
X0169413Y0073067D01*
X0169409Y0072966D01*
X0169401Y0072866D01*
X0169389Y0072765D01*
X0169373Y0072665D01*
X0169353Y0072566D01*
X0169329Y0072468D01*
X0169301Y0072371D01*
X0169270Y0072275D01*
X0169235Y0072180D01*
X0169196Y0072086D01*
X0169153Y0071995D01*
X0169107Y0071905D01*
X0169057Y0071817D01*
X0169004Y0071731D01*
X0168948Y0071647D01*
X0168888Y0071565D01*
X0168825Y0071486D01*
X0168759Y0071409D01*
X0168690Y0071336D01*
X0168618Y0071264D01*
X0168544Y0071196D01*
X0168466Y0071131D01*
X0168387Y0071069D01*
X0168304Y0071010D01*
X0168220Y0070954D01*
X0168133Y0070902D01*
X0168045Y0070853D01*
X0167955Y0070808D01*
X0167862Y0070766D01*
X0167769Y0070728D01*
X0167674Y0070694D01*
X0167577Y0070663D01*
X0167480Y0070637D01*
X0167381Y0070614D01*
X0167282Y0070595D01*
X0167182Y0070580D01*
X0167081Y0070569D01*
X0166980Y0070562D01*
X0166879Y0070559D01*
X0166778Y0070560D01*
X0166677Y0070565D01*
X0166576Y0070574D01*
X0166476Y0070587D01*
X0166376Y0070604D01*
X0166278Y0070625D01*
X0166179Y0070649D01*
X0166082Y0070678D01*
X0165987Y0070710D01*
X0165892Y0070747D01*
X0165799Y0070786D01*
X0165708Y0070830D01*
X0165619Y0070877D01*
X0165531Y0070928D01*
X0165445Y0070982D01*
X0165362Y0071039D01*
X0165281Y0071099D01*
X0165203Y0071163D01*
X0165127Y0071230D01*
X0165053Y0071300D01*
X0164983Y0071372D01*
X0164916Y0071447D01*
X0164851Y0071525D01*
X0164790Y0071606D01*
X0164732Y0071688D01*
X0164677Y0071773D01*
X0164625Y0071860D01*
X0164577Y0071949D01*
X0164533Y0072040D01*
X0164492Y0072133D01*
X0164455Y0072227D01*
X0164422Y0072322D01*
X0164392Y0072419D01*
X0164367Y0072517D01*
X0164345Y0072616D01*
X0164327Y0072715D01*
X0164313Y0072815D01*
X0164303Y0072916D01*
X0164297Y0073017D01*
X0164295Y0073118D01*
X0164295Y0171543D02*
X0164297Y0171644D01*
X0164303Y0171745D01*
X0164313Y0171846D01*
X0164327Y0171946D01*
X0164345Y0172045D01*
X0164367Y0172144D01*
X0164392Y0172242D01*
X0164422Y0172339D01*
X0164455Y0172434D01*
X0164492Y0172528D01*
X0164533Y0172621D01*
X0164577Y0172712D01*
X0164625Y0172801D01*
X0164677Y0172888D01*
X0164732Y0172973D01*
X0164790Y0173055D01*
X0164851Y0173136D01*
X0164916Y0173214D01*
X0164983Y0173289D01*
X0165053Y0173361D01*
X0165127Y0173431D01*
X0165203Y0173498D01*
X0165281Y0173562D01*
X0165362Y0173622D01*
X0165445Y0173679D01*
X0165531Y0173733D01*
X0165619Y0173784D01*
X0165708Y0173831D01*
X0165799Y0173875D01*
X0165892Y0173914D01*
X0165987Y0173951D01*
X0166082Y0173983D01*
X0166179Y0174012D01*
X0166278Y0174036D01*
X0166376Y0174057D01*
X0166476Y0174074D01*
X0166576Y0174087D01*
X0166677Y0174096D01*
X0166778Y0174101D01*
X0166879Y0174102D01*
X0166980Y0174099D01*
X0167081Y0174092D01*
X0167182Y0174081D01*
X0167282Y0174066D01*
X0167381Y0174047D01*
X0167480Y0174024D01*
X0167577Y0173998D01*
X0167674Y0173967D01*
X0167769Y0173933D01*
X0167862Y0173895D01*
X0167955Y0173853D01*
X0168045Y0173808D01*
X0168134Y0173759D01*
X0168220Y0173707D01*
X0168304Y0173651D01*
X0168387Y0173592D01*
X0168466Y0173530D01*
X0168544Y0173465D01*
X0168618Y0173397D01*
X0168690Y0173325D01*
X0168759Y0173252D01*
X0168825Y0173175D01*
X0168888Y0173096D01*
X0168948Y0173014D01*
X0169004Y0172930D01*
X0169057Y0172844D01*
X0169107Y0172756D01*
X0169153Y0172666D01*
X0169196Y0172575D01*
X0169235Y0172481D01*
X0169270Y0172386D01*
X0169301Y0172290D01*
X0169329Y0172193D01*
X0169353Y0172095D01*
X0169373Y0171996D01*
X0169389Y0171896D01*
X0169401Y0171795D01*
X0169409Y0171695D01*
X0169413Y0171594D01*
X0169413Y0171492D01*
X0169409Y0171391D01*
X0169401Y0171291D01*
X0169389Y0171190D01*
X0169373Y0171090D01*
X0169353Y0170991D01*
X0169329Y0170893D01*
X0169301Y0170796D01*
X0169270Y0170700D01*
X0169235Y0170605D01*
X0169196Y0170511D01*
X0169153Y0170420D01*
X0169107Y0170330D01*
X0169057Y0170242D01*
X0169004Y0170156D01*
X0168948Y0170072D01*
X0168888Y0169990D01*
X0168825Y0169911D01*
X0168759Y0169834D01*
X0168690Y0169761D01*
X0168618Y0169689D01*
X0168544Y0169621D01*
X0168466Y0169556D01*
X0168387Y0169494D01*
X0168304Y0169435D01*
X0168220Y0169379D01*
X0168133Y0169327D01*
X0168045Y0169278D01*
X0167955Y0169233D01*
X0167862Y0169191D01*
X0167769Y0169153D01*
X0167674Y0169119D01*
X0167577Y0169088D01*
X0167480Y0169062D01*
X0167381Y0169039D01*
X0167282Y0169020D01*
X0167182Y0169005D01*
X0167081Y0168994D01*
X0166980Y0168987D01*
X0166879Y0168984D01*
X0166778Y0168985D01*
X0166677Y0168990D01*
X0166576Y0168999D01*
X0166476Y0169012D01*
X0166376Y0169029D01*
X0166278Y0169050D01*
X0166179Y0169074D01*
X0166082Y0169103D01*
X0165987Y0169135D01*
X0165892Y0169172D01*
X0165799Y0169211D01*
X0165708Y0169255D01*
X0165619Y0169302D01*
X0165531Y0169353D01*
X0165445Y0169407D01*
X0165362Y0169464D01*
X0165281Y0169524D01*
X0165203Y0169588D01*
X0165127Y0169655D01*
X0165053Y0169725D01*
X0164983Y0169797D01*
X0164916Y0169872D01*
X0164851Y0169950D01*
X0164790Y0170031D01*
X0164732Y0170113D01*
X0164677Y0170198D01*
X0164625Y0170285D01*
X0164577Y0170374D01*
X0164533Y0170465D01*
X0164492Y0170558D01*
X0164455Y0170652D01*
X0164422Y0170747D01*
X0164392Y0170844D01*
X0164367Y0170942D01*
X0164345Y0171041D01*
X0164327Y0171140D01*
X0164313Y0171240D01*
X0164303Y0171341D01*
X0164297Y0171442D01*
X0164295Y0171543D01*
X0135358Y0171543D02*
X0135360Y0171631D01*
X0135366Y0171719D01*
X0135376Y0171807D01*
X0135390Y0171895D01*
X0135407Y0171981D01*
X0135429Y0172067D01*
X0135454Y0172151D01*
X0135484Y0172235D01*
X0135516Y0172317D01*
X0135553Y0172397D01*
X0135593Y0172476D01*
X0135637Y0172553D01*
X0135684Y0172628D01*
X0135734Y0172700D01*
X0135788Y0172771D01*
X0135844Y0172838D01*
X0135904Y0172904D01*
X0135966Y0172966D01*
X0136032Y0173026D01*
X0136099Y0173082D01*
X0136170Y0173136D01*
X0136242Y0173186D01*
X0136317Y0173233D01*
X0136394Y0173277D01*
X0136473Y0173317D01*
X0136553Y0173354D01*
X0136635Y0173386D01*
X0136719Y0173416D01*
X0136803Y0173441D01*
X0136889Y0173463D01*
X0136975Y0173480D01*
X0137063Y0173494D01*
X0137151Y0173504D01*
X0137239Y0173510D01*
X0137327Y0173512D01*
X0137415Y0173510D01*
X0137503Y0173504D01*
X0137591Y0173494D01*
X0137679Y0173480D01*
X0137765Y0173463D01*
X0137851Y0173441D01*
X0137935Y0173416D01*
X0138019Y0173386D01*
X0138101Y0173354D01*
X0138181Y0173317D01*
X0138260Y0173277D01*
X0138337Y0173233D01*
X0138412Y0173186D01*
X0138484Y0173136D01*
X0138555Y0173082D01*
X0138622Y0173026D01*
X0138688Y0172966D01*
X0138750Y0172904D01*
X0138810Y0172838D01*
X0138866Y0172771D01*
X0138920Y0172700D01*
X0138970Y0172628D01*
X0139017Y0172553D01*
X0139061Y0172476D01*
X0139101Y0172397D01*
X0139138Y0172317D01*
X0139170Y0172235D01*
X0139200Y0172151D01*
X0139225Y0172067D01*
X0139247Y0171981D01*
X0139264Y0171895D01*
X0139278Y0171807D01*
X0139288Y0171719D01*
X0139294Y0171631D01*
X0139296Y0171543D01*
X0139294Y0171455D01*
X0139288Y0171367D01*
X0139278Y0171279D01*
X0139264Y0171191D01*
X0139247Y0171105D01*
X0139225Y0171019D01*
X0139200Y0170935D01*
X0139170Y0170851D01*
X0139138Y0170769D01*
X0139101Y0170689D01*
X0139061Y0170610D01*
X0139017Y0170533D01*
X0138970Y0170458D01*
X0138920Y0170386D01*
X0138866Y0170315D01*
X0138810Y0170248D01*
X0138750Y0170182D01*
X0138688Y0170120D01*
X0138622Y0170060D01*
X0138555Y0170004D01*
X0138484Y0169950D01*
X0138412Y0169900D01*
X0138337Y0169853D01*
X0138260Y0169809D01*
X0138181Y0169769D01*
X0138101Y0169732D01*
X0138019Y0169700D01*
X0137935Y0169670D01*
X0137851Y0169645D01*
X0137765Y0169623D01*
X0137679Y0169606D01*
X0137591Y0169592D01*
X0137503Y0169582D01*
X0137415Y0169576D01*
X0137327Y0169574D01*
X0137239Y0169576D01*
X0137151Y0169582D01*
X0137063Y0169592D01*
X0136975Y0169606D01*
X0136889Y0169623D01*
X0136803Y0169645D01*
X0136719Y0169670D01*
X0136635Y0169700D01*
X0136553Y0169732D01*
X0136473Y0169769D01*
X0136394Y0169809D01*
X0136317Y0169853D01*
X0136242Y0169900D01*
X0136170Y0169950D01*
X0136099Y0170004D01*
X0136032Y0170060D01*
X0135966Y0170120D01*
X0135904Y0170182D01*
X0135844Y0170248D01*
X0135788Y0170315D01*
X0135734Y0170386D01*
X0135684Y0170458D01*
X0135637Y0170533D01*
X0135593Y0170610D01*
X0135553Y0170689D01*
X0135516Y0170769D01*
X0135484Y0170851D01*
X0135454Y0170935D01*
X0135429Y0171019D01*
X0135407Y0171105D01*
X0135390Y0171191D01*
X0135376Y0171279D01*
X0135366Y0171367D01*
X0135360Y0171455D01*
X0135358Y0171543D01*
X0065870Y0171543D02*
X0065872Y0171644D01*
X0065878Y0171745D01*
X0065888Y0171846D01*
X0065902Y0171946D01*
X0065920Y0172045D01*
X0065942Y0172144D01*
X0065967Y0172242D01*
X0065997Y0172339D01*
X0066030Y0172434D01*
X0066067Y0172528D01*
X0066108Y0172621D01*
X0066152Y0172712D01*
X0066200Y0172801D01*
X0066252Y0172888D01*
X0066307Y0172973D01*
X0066365Y0173055D01*
X0066426Y0173136D01*
X0066491Y0173214D01*
X0066558Y0173289D01*
X0066628Y0173361D01*
X0066702Y0173431D01*
X0066778Y0173498D01*
X0066856Y0173562D01*
X0066937Y0173622D01*
X0067020Y0173679D01*
X0067106Y0173733D01*
X0067194Y0173784D01*
X0067283Y0173831D01*
X0067374Y0173875D01*
X0067467Y0173914D01*
X0067562Y0173951D01*
X0067657Y0173983D01*
X0067754Y0174012D01*
X0067853Y0174036D01*
X0067951Y0174057D01*
X0068051Y0174074D01*
X0068151Y0174087D01*
X0068252Y0174096D01*
X0068353Y0174101D01*
X0068454Y0174102D01*
X0068555Y0174099D01*
X0068656Y0174092D01*
X0068757Y0174081D01*
X0068857Y0174066D01*
X0068956Y0174047D01*
X0069055Y0174024D01*
X0069152Y0173998D01*
X0069249Y0173967D01*
X0069344Y0173933D01*
X0069437Y0173895D01*
X0069530Y0173853D01*
X0069620Y0173808D01*
X0069709Y0173759D01*
X0069795Y0173707D01*
X0069879Y0173651D01*
X0069962Y0173592D01*
X0070041Y0173530D01*
X0070119Y0173465D01*
X0070193Y0173397D01*
X0070265Y0173325D01*
X0070334Y0173252D01*
X0070400Y0173175D01*
X0070463Y0173096D01*
X0070523Y0173014D01*
X0070579Y0172930D01*
X0070632Y0172844D01*
X0070682Y0172756D01*
X0070728Y0172666D01*
X0070771Y0172575D01*
X0070810Y0172481D01*
X0070845Y0172386D01*
X0070876Y0172290D01*
X0070904Y0172193D01*
X0070928Y0172095D01*
X0070948Y0171996D01*
X0070964Y0171896D01*
X0070976Y0171795D01*
X0070984Y0171695D01*
X0070988Y0171594D01*
X0070988Y0171492D01*
X0070984Y0171391D01*
X0070976Y0171291D01*
X0070964Y0171190D01*
X0070948Y0171090D01*
X0070928Y0170991D01*
X0070904Y0170893D01*
X0070876Y0170796D01*
X0070845Y0170700D01*
X0070810Y0170605D01*
X0070771Y0170511D01*
X0070728Y0170420D01*
X0070682Y0170330D01*
X0070632Y0170242D01*
X0070579Y0170156D01*
X0070523Y0170072D01*
X0070463Y0169990D01*
X0070400Y0169911D01*
X0070334Y0169834D01*
X0070265Y0169761D01*
X0070193Y0169689D01*
X0070119Y0169621D01*
X0070041Y0169556D01*
X0069962Y0169494D01*
X0069879Y0169435D01*
X0069795Y0169379D01*
X0069708Y0169327D01*
X0069620Y0169278D01*
X0069530Y0169233D01*
X0069437Y0169191D01*
X0069344Y0169153D01*
X0069249Y0169119D01*
X0069152Y0169088D01*
X0069055Y0169062D01*
X0068956Y0169039D01*
X0068857Y0169020D01*
X0068757Y0169005D01*
X0068656Y0168994D01*
X0068555Y0168987D01*
X0068454Y0168984D01*
X0068353Y0168985D01*
X0068252Y0168990D01*
X0068151Y0168999D01*
X0068051Y0169012D01*
X0067951Y0169029D01*
X0067853Y0169050D01*
X0067754Y0169074D01*
X0067657Y0169103D01*
X0067562Y0169135D01*
X0067467Y0169172D01*
X0067374Y0169211D01*
X0067283Y0169255D01*
X0067194Y0169302D01*
X0067106Y0169353D01*
X0067020Y0169407D01*
X0066937Y0169464D01*
X0066856Y0169524D01*
X0066778Y0169588D01*
X0066702Y0169655D01*
X0066628Y0169725D01*
X0066558Y0169797D01*
X0066491Y0169872D01*
X0066426Y0169950D01*
X0066365Y0170031D01*
X0066307Y0170113D01*
X0066252Y0170198D01*
X0066200Y0170285D01*
X0066152Y0170374D01*
X0066108Y0170465D01*
X0066067Y0170558D01*
X0066030Y0170652D01*
X0065997Y0170747D01*
X0065967Y0170844D01*
X0065942Y0170942D01*
X0065920Y0171041D01*
X0065902Y0171140D01*
X0065888Y0171240D01*
X0065878Y0171341D01*
X0065872Y0171442D01*
X0065870Y0171543D01*
X0036933Y0171543D02*
X0036935Y0171631D01*
X0036941Y0171719D01*
X0036951Y0171807D01*
X0036965Y0171895D01*
X0036982Y0171981D01*
X0037004Y0172067D01*
X0037029Y0172151D01*
X0037059Y0172235D01*
X0037091Y0172317D01*
X0037128Y0172397D01*
X0037168Y0172476D01*
X0037212Y0172553D01*
X0037259Y0172628D01*
X0037309Y0172700D01*
X0037363Y0172771D01*
X0037419Y0172838D01*
X0037479Y0172904D01*
X0037541Y0172966D01*
X0037607Y0173026D01*
X0037674Y0173082D01*
X0037745Y0173136D01*
X0037817Y0173186D01*
X0037892Y0173233D01*
X0037969Y0173277D01*
X0038048Y0173317D01*
X0038128Y0173354D01*
X0038210Y0173386D01*
X0038294Y0173416D01*
X0038378Y0173441D01*
X0038464Y0173463D01*
X0038550Y0173480D01*
X0038638Y0173494D01*
X0038726Y0173504D01*
X0038814Y0173510D01*
X0038902Y0173512D01*
X0038990Y0173510D01*
X0039078Y0173504D01*
X0039166Y0173494D01*
X0039254Y0173480D01*
X0039340Y0173463D01*
X0039426Y0173441D01*
X0039510Y0173416D01*
X0039594Y0173386D01*
X0039676Y0173354D01*
X0039756Y0173317D01*
X0039835Y0173277D01*
X0039912Y0173233D01*
X0039987Y0173186D01*
X0040059Y0173136D01*
X0040130Y0173082D01*
X0040197Y0173026D01*
X0040263Y0172966D01*
X0040325Y0172904D01*
X0040385Y0172838D01*
X0040441Y0172771D01*
X0040495Y0172700D01*
X0040545Y0172628D01*
X0040592Y0172553D01*
X0040636Y0172476D01*
X0040676Y0172397D01*
X0040713Y0172317D01*
X0040745Y0172235D01*
X0040775Y0172151D01*
X0040800Y0172067D01*
X0040822Y0171981D01*
X0040839Y0171895D01*
X0040853Y0171807D01*
X0040863Y0171719D01*
X0040869Y0171631D01*
X0040871Y0171543D01*
X0040869Y0171455D01*
X0040863Y0171367D01*
X0040853Y0171279D01*
X0040839Y0171191D01*
X0040822Y0171105D01*
X0040800Y0171019D01*
X0040775Y0170935D01*
X0040745Y0170851D01*
X0040713Y0170769D01*
X0040676Y0170689D01*
X0040636Y0170610D01*
X0040592Y0170533D01*
X0040545Y0170458D01*
X0040495Y0170386D01*
X0040441Y0170315D01*
X0040385Y0170248D01*
X0040325Y0170182D01*
X0040263Y0170120D01*
X0040197Y0170060D01*
X0040130Y0170004D01*
X0040059Y0169950D01*
X0039987Y0169900D01*
X0039912Y0169853D01*
X0039835Y0169809D01*
X0039756Y0169769D01*
X0039676Y0169732D01*
X0039594Y0169700D01*
X0039510Y0169670D01*
X0039426Y0169645D01*
X0039340Y0169623D01*
X0039254Y0169606D01*
X0039166Y0169592D01*
X0039078Y0169582D01*
X0038990Y0169576D01*
X0038902Y0169574D01*
X0038814Y0169576D01*
X0038726Y0169582D01*
X0038638Y0169592D01*
X0038550Y0169606D01*
X0038464Y0169623D01*
X0038378Y0169645D01*
X0038294Y0169670D01*
X0038210Y0169700D01*
X0038128Y0169732D01*
X0038048Y0169769D01*
X0037969Y0169809D01*
X0037892Y0169853D01*
X0037817Y0169900D01*
X0037745Y0169950D01*
X0037674Y0170004D01*
X0037607Y0170060D01*
X0037541Y0170120D01*
X0037479Y0170182D01*
X0037419Y0170248D01*
X0037363Y0170315D01*
X0037309Y0170386D01*
X0037259Y0170458D01*
X0037212Y0170533D01*
X0037168Y0170610D01*
X0037128Y0170689D01*
X0037091Y0170769D01*
X0037059Y0170851D01*
X0037029Y0170935D01*
X0037004Y0171019D01*
X0036982Y0171105D01*
X0036965Y0171191D01*
X0036951Y0171279D01*
X0036941Y0171367D01*
X0036935Y0171455D01*
X0036933Y0171543D01*
D11*
X0017248Y0116425D03*
X0060555Y0116425D03*
X0115673Y0116425D03*
X0158980Y0116425D03*
X0158980Y0018000D03*
X0115673Y0018000D03*
X0060555Y0018000D03*
X0017248Y0018000D03*
D12*
X0025122Y0018000D03*
X0032996Y0018000D03*
X0040870Y0018000D03*
X0068429Y0018000D03*
X0076303Y0018000D03*
X0084177Y0018000D03*
X0123547Y0018000D03*
X0131421Y0018000D03*
X0139295Y0018000D03*
X0166854Y0018000D03*
X0174728Y0018000D03*
X0182602Y0018000D03*
X0182602Y0116425D03*
X0174728Y0116425D03*
X0166854Y0116425D03*
X0139295Y0116425D03*
X0131421Y0116425D03*
X0123547Y0116425D03*
X0084177Y0116425D03*
X0076303Y0116425D03*
X0068429Y0116425D03*
X0040870Y0116425D03*
X0032996Y0116425D03*
X0025122Y0116425D03*
D13*
X0027091Y0136110D03*
X0034965Y0136110D03*
X0042839Y0136110D03*
X0050713Y0136110D03*
X0058587Y0136110D03*
X0066461Y0136110D03*
X0074335Y0136110D03*
X0082209Y0136110D03*
X0090083Y0136110D03*
X0109768Y0136110D03*
X0117642Y0136110D03*
X0125516Y0136110D03*
X0133390Y0136110D03*
X0141264Y0136110D03*
X0149138Y0136110D03*
X0157012Y0136110D03*
X0164886Y0136110D03*
X0172760Y0136110D03*
X0180634Y0136110D03*
X0188508Y0136110D03*
X0188508Y0037685D03*
X0180634Y0037685D03*
X0172760Y0037685D03*
X0164886Y0037685D03*
X0157012Y0037685D03*
X0149138Y0037685D03*
X0141264Y0037685D03*
X0133390Y0037685D03*
X0125516Y0037685D03*
X0117642Y0037685D03*
X0109768Y0037685D03*
X0090083Y0037685D03*
X0082209Y0037685D03*
X0074335Y0037685D03*
X0066461Y0037685D03*
X0058587Y0037685D03*
X0050713Y0037685D03*
X0042839Y0037685D03*
X0034965Y0037685D03*
X0027091Y0037685D03*
X0019217Y0037685D03*
X0011343Y0037685D03*
X0011343Y0136110D03*
X0019217Y0136110D03*
D14*
X0020611Y0171543D03*
X0020611Y0073118D03*
X0119036Y0073118D03*
X0119036Y0171543D03*
D15*
X0085341Y0171543D03*
X0085341Y0073118D03*
X0183766Y0073118D03*
X0183766Y0171543D03*
D16*
X0108193Y0160626D02*
X0105437Y0160626D01*
X0108193Y0160626D02*
X0108193Y0157870D01*
X0105437Y0157870D01*
X0105437Y0160626D01*
X0105437Y0159050D02*
X0108193Y0159050D01*
X0108193Y0160230D02*
X0105437Y0160230D01*
X0105437Y0153721D02*
X0108193Y0153721D01*
X0108193Y0150965D01*
X0105437Y0150965D01*
X0105437Y0153721D01*
X0105437Y0152145D02*
X0108193Y0152145D01*
X0108193Y0153325D02*
X0105437Y0153325D01*
X0105437Y0062201D02*
X0108193Y0062201D01*
X0108193Y0059445D01*
X0105437Y0059445D01*
X0105437Y0062201D01*
X0105437Y0060625D02*
X0108193Y0060625D01*
X0108193Y0061805D02*
X0105437Y0061805D01*
X0105437Y0055295D02*
X0108193Y0055295D01*
X0108193Y0052539D01*
X0105437Y0052539D01*
X0105437Y0055295D01*
X0105437Y0053719D02*
X0108193Y0053719D01*
X0108193Y0054899D02*
X0105437Y0054899D01*
X0009768Y0055295D02*
X0007012Y0055295D01*
X0009768Y0055295D02*
X0009768Y0052539D01*
X0007012Y0052539D01*
X0007012Y0055295D01*
X0007012Y0053719D02*
X0009768Y0053719D01*
X0009768Y0054899D02*
X0007012Y0054899D01*
X0007012Y0062201D02*
X0009768Y0062201D01*
X0009768Y0059445D01*
X0007012Y0059445D01*
X0007012Y0062201D01*
X0007012Y0060625D02*
X0009768Y0060625D01*
X0009768Y0061805D02*
X0007012Y0061805D01*
X0007012Y0153721D02*
X0009768Y0153721D01*
X0009768Y0150965D01*
X0007012Y0150965D01*
X0007012Y0153721D01*
X0007012Y0152145D02*
X0009768Y0152145D01*
X0009768Y0153325D02*
X0007012Y0153325D01*
X0007012Y0160626D02*
X0009768Y0160626D01*
X0009768Y0157870D01*
X0007012Y0157870D01*
X0007012Y0160626D01*
X0007012Y0159050D02*
X0009768Y0159050D01*
X0009768Y0160230D02*
X0007012Y0160230D01*
D17*
X0008390Y0180008D03*
X0008390Y0186701D03*
X0008390Y0088276D03*
X0008390Y0081583D03*
X0106815Y0081583D03*
X0106815Y0088276D03*
X0106815Y0180008D03*
X0106815Y0186701D03*
D18*
X0111183Y0186821D02*
X0158165Y0186821D01*
X0158165Y0187626D02*
X0158165Y0184162D01*
X0160615Y0181713D01*
X0162002Y0181713D01*
X0167212Y0176502D01*
X0165868Y0176502D01*
X0164045Y0175747D01*
X0162650Y0174352D01*
X0161895Y0172530D01*
X0161895Y0170557D01*
X0162650Y0168734D01*
X0164045Y0167339D01*
X0165868Y0166584D01*
X0167841Y0166584D01*
X0169663Y0167339D01*
X0171058Y0168734D01*
X0171813Y0170557D01*
X0171813Y0171901D01*
X0173984Y0169731D01*
X0174161Y0169554D01*
X0174161Y0166538D01*
X0174526Y0165656D01*
X0175202Y0164981D01*
X0176084Y0164616D01*
X0191448Y0164616D01*
X0192330Y0164981D01*
X0193005Y0165656D01*
X0193370Y0166538D01*
X0193370Y0176548D01*
X0193005Y0177430D01*
X0192330Y0178105D01*
X0191448Y0178471D01*
X0176084Y0178471D01*
X0175202Y0178105D01*
X0174931Y0177835D01*
X0166528Y0186238D01*
X0166528Y0187626D01*
X0164078Y0190075D01*
X0160615Y0190075D01*
X0158165Y0187626D01*
X0158959Y0188419D02*
X0111183Y0188419D01*
X0111183Y0189344D02*
X0111131Y0189469D01*
X0112646Y0190984D01*
X0113468Y0190984D01*
X0114049Y0191565D01*
X0182358Y0191565D01*
X0182358Y0191465D01*
X0184808Y0189016D01*
X0188271Y0189016D01*
X0190720Y0191465D01*
X0190720Y0194929D01*
X0188271Y0197378D01*
X0187449Y0197378D01*
X0186610Y0198217D01*
X0185287Y0198765D01*
X0114049Y0198765D01*
X0113468Y0199346D01*
X0110004Y0199346D01*
X0107555Y0196897D01*
X0107555Y0196075D01*
X0103763Y0192283D01*
X0103215Y0190960D01*
X0103215Y0190629D01*
X0102878Y0190292D01*
X0102878Y0200087D01*
X0195398Y0200087D01*
X0195398Y0107567D01*
X0162522Y0107567D01*
X0166405Y0111450D01*
X0167844Y0111450D01*
X0169672Y0112208D01*
X0170791Y0113327D01*
X0171910Y0112208D01*
X0173739Y0111450D01*
X0175718Y0111450D01*
X0177546Y0112208D01*
X0178946Y0113607D01*
X0179053Y0113867D01*
X0179265Y0113575D01*
X0179752Y0113088D01*
X0180309Y0112684D01*
X0180923Y0112371D01*
X0181578Y0112158D01*
X0182258Y0112050D01*
X0182602Y0112050D01*
X0182602Y0116425D01*
X0182602Y0116425D01*
X0182602Y0112050D01*
X0182947Y0112050D01*
X0183627Y0112158D01*
X0184282Y0112371D01*
X0184895Y0112684D01*
X0185452Y0113088D01*
X0185939Y0113575D01*
X0186344Y0114132D01*
X0186657Y0114746D01*
X0186869Y0115401D01*
X0186977Y0116081D01*
X0186977Y0116425D01*
X0182602Y0116425D01*
X0182602Y0120800D01*
X0182258Y0120800D01*
X0181578Y0120692D01*
X0180923Y0120479D01*
X0180309Y0120167D01*
X0179752Y0119762D01*
X0179265Y0119275D01*
X0179053Y0118983D01*
X0178946Y0119243D01*
X0177546Y0120643D01*
X0175718Y0121400D01*
X0173739Y0121400D01*
X0171910Y0120643D01*
X0170791Y0119524D01*
X0169672Y0120643D01*
X0167844Y0121400D01*
X0165865Y0121400D01*
X0164036Y0120643D01*
X0163638Y0120244D01*
X0163590Y0120359D01*
X0162915Y0121035D01*
X0162033Y0121400D01*
X0158531Y0121400D01*
X0150950Y0128981D01*
X0149774Y0129468D01*
X0132747Y0129468D01*
X0130561Y0131654D01*
X0132355Y0130910D01*
X0134424Y0130910D01*
X0136335Y0131702D01*
X0137752Y0133118D01*
X0137755Y0133114D01*
X0138267Y0132602D01*
X0138853Y0132176D01*
X0139498Y0131847D01*
X0140187Y0131623D01*
X0140902Y0131510D01*
X0141264Y0131510D01*
X0141626Y0131510D01*
X0142341Y0131623D01*
X0143030Y0131847D01*
X0143675Y0132176D01*
X0144260Y0132602D01*
X0144772Y0133114D01*
X0144776Y0133118D01*
X0146192Y0131702D01*
X0148103Y0130910D01*
X0150172Y0130910D01*
X0152083Y0131702D01*
X0153075Y0132693D01*
X0154066Y0131702D01*
X0155977Y0130910D01*
X0158046Y0130910D01*
X0159957Y0131702D01*
X0160949Y0132693D01*
X0161940Y0131702D01*
X0163851Y0130910D01*
X0165920Y0130910D01*
X0167831Y0131702D01*
X0168823Y0132693D01*
X0169814Y0131702D01*
X0171725Y0130910D01*
X0173794Y0130910D01*
X0175705Y0131702D01*
X0176697Y0132693D01*
X0177688Y0131702D01*
X0179600Y0130910D01*
X0181668Y0130910D01*
X0183579Y0131702D01*
X0184571Y0132693D01*
X0185562Y0131702D01*
X0187474Y0130910D01*
X0189542Y0130910D01*
X0191453Y0131702D01*
X0192916Y0133165D01*
X0193708Y0135076D01*
X0193708Y0137145D01*
X0192916Y0139056D01*
X0191453Y0140519D01*
X0189542Y0141310D01*
X0187474Y0141310D01*
X0185562Y0140519D01*
X0184571Y0139527D01*
X0183579Y0140519D01*
X0181668Y0141310D01*
X0179600Y0141310D01*
X0177688Y0140519D01*
X0176697Y0139527D01*
X0175705Y0140519D01*
X0173794Y0141310D01*
X0171725Y0141310D01*
X0169814Y0140519D01*
X0168823Y0139527D01*
X0167831Y0140519D01*
X0165920Y0141310D01*
X0163851Y0141310D01*
X0161940Y0140519D01*
X0160949Y0139527D01*
X0159957Y0140519D01*
X0158046Y0141310D01*
X0155977Y0141310D01*
X0154066Y0140519D01*
X0153075Y0139527D01*
X0152083Y0140519D01*
X0150172Y0141310D01*
X0148103Y0141310D01*
X0146192Y0140519D01*
X0144776Y0139102D01*
X0144772Y0139107D01*
X0144260Y0139619D01*
X0143675Y0140045D01*
X0143030Y0140373D01*
X0142341Y0140597D01*
X0141626Y0140710D01*
X0141264Y0140710D01*
X0141264Y0136110D01*
X0141264Y0131510D01*
X0141264Y0136110D01*
X0141264Y0136110D01*
X0141264Y0136110D01*
X0141264Y0140710D01*
X0140902Y0140710D01*
X0140187Y0140597D01*
X0139498Y0140373D01*
X0138853Y0140045D01*
X0138267Y0139619D01*
X0137755Y0139107D01*
X0137752Y0139102D01*
X0136335Y0140519D01*
X0134424Y0141310D01*
X0132355Y0141310D01*
X0130444Y0140519D01*
X0129453Y0139527D01*
X0128716Y0140264D01*
X0128716Y0140690D01*
X0151451Y0163425D01*
X0152838Y0163425D01*
X0155287Y0165874D01*
X0155287Y0169338D01*
X0152838Y0171787D01*
X0149389Y0171787D01*
X0151350Y0173748D01*
X0151350Y0177212D01*
X0148901Y0179661D01*
X0145437Y0179661D01*
X0142988Y0177212D01*
X0142988Y0175825D01*
X0141074Y0173911D01*
X0141030Y0174018D01*
X0139801Y0175247D01*
X0138196Y0175912D01*
X0136458Y0175912D01*
X0134852Y0175247D01*
X0133623Y0174018D01*
X0132958Y0172412D01*
X0132958Y0170674D01*
X0133623Y0169069D01*
X0134852Y0167840D01*
X0134959Y0167796D01*
X0115829Y0148666D01*
X0114929Y0147765D01*
X0114442Y0146589D01*
X0114442Y0140264D01*
X0113705Y0139527D01*
X0112713Y0140519D01*
X0110802Y0141310D01*
X0108733Y0141310D01*
X0106822Y0140519D01*
X0105359Y0139056D01*
X0104568Y0137145D01*
X0104568Y0135076D01*
X0105359Y0133165D01*
X0106822Y0131702D01*
X0108733Y0130910D01*
X0110802Y0130910D01*
X0112713Y0131702D01*
X0113705Y0132693D01*
X0114442Y0131956D01*
X0114442Y0131537D01*
X0114929Y0130361D01*
X0115829Y0129460D01*
X0120347Y0124942D01*
X0120347Y0120261D01*
X0120331Y0120244D01*
X0120283Y0120359D01*
X0119608Y0121035D01*
X0118725Y0121400D01*
X0112621Y0121400D01*
X0111739Y0121035D01*
X0111064Y0120359D01*
X0110698Y0119477D01*
X0110698Y0113373D01*
X0111064Y0112491D01*
X0111739Y0111816D01*
X0112621Y0111450D01*
X0118725Y0111450D01*
X0119608Y0111816D01*
X0120283Y0112491D01*
X0120331Y0112606D01*
X0120347Y0112590D01*
X0120347Y0111852D01*
X0120834Y0110676D01*
X0121735Y0109775D01*
X0123943Y0107567D01*
X0102878Y0107567D01*
X0102878Y0156234D01*
X0102902Y0156176D01*
X0103707Y0155371D01*
X0103580Y0155244D01*
X0103319Y0154853D01*
X0103138Y0154418D01*
X0103046Y0153956D01*
X0103046Y0152527D01*
X0106631Y0152527D01*
X0106631Y0152158D01*
X0106999Y0152158D01*
X0106999Y0148574D01*
X0108428Y0148574D01*
X0108890Y0148666D01*
X0109325Y0148846D01*
X0109717Y0149108D01*
X0110050Y0149441D01*
X0110311Y0149832D01*
X0110492Y0150267D01*
X0110583Y0150729D01*
X0110583Y0152158D01*
X0106999Y0152158D01*
X0106999Y0152527D01*
X0110583Y0152527D01*
X0110583Y0153956D01*
X0110492Y0154418D01*
X0110311Y0154853D01*
X0110050Y0155244D01*
X0109923Y0155371D01*
X0110728Y0156176D01*
X0111183Y0157275D01*
X0111183Y0161221D01*
X0110728Y0162320D01*
X0110015Y0163033D01*
X0110015Y0165301D01*
X0110335Y0165216D01*
X0118236Y0165216D01*
X0118236Y0170743D01*
X0119836Y0170743D01*
X0119836Y0165216D01*
X0127738Y0165216D01*
X0128196Y0165338D01*
X0128606Y0165575D01*
X0128941Y0165911D01*
X0129178Y0166321D01*
X0129301Y0166779D01*
X0129301Y0170743D01*
X0119836Y0170743D01*
X0119836Y0172343D01*
X0129301Y0172343D01*
X0129301Y0176308D01*
X0129178Y0176766D01*
X0128941Y0177176D01*
X0128606Y0177511D01*
X0128196Y0177748D01*
X0127738Y0177871D01*
X0119836Y0177871D01*
X0119836Y0172343D01*
X0118236Y0172343D01*
X0118236Y0177871D01*
X0111183Y0177871D01*
X0111183Y0182651D01*
X0110892Y0183354D01*
X0111183Y0184058D01*
X0111183Y0189344D01*
X0111680Y0190018D02*
X0160558Y0190018D01*
X0164135Y0190018D02*
X0183805Y0190018D01*
X0189273Y0190018D02*
X0195398Y0190018D01*
X0195398Y0191616D02*
X0190720Y0191616D01*
X0190720Y0193215D02*
X0195398Y0193215D01*
X0195398Y0194813D02*
X0190720Y0194813D01*
X0189237Y0196412D02*
X0195398Y0196412D01*
X0195398Y0198010D02*
X0186817Y0198010D01*
X0195398Y0199609D02*
X0102878Y0199609D01*
X0102878Y0198010D02*
X0108668Y0198010D01*
X0107555Y0196412D02*
X0102878Y0196412D01*
X0102878Y0194813D02*
X0106293Y0194813D01*
X0104695Y0193215D02*
X0102878Y0193215D01*
X0102878Y0191616D02*
X0103487Y0191616D01*
X0096972Y0191616D02*
X0092295Y0191616D01*
X0092295Y0191465D02*
X0092295Y0194929D01*
X0089846Y0197378D01*
X0089024Y0197378D01*
X0088185Y0198217D01*
X0086862Y0198765D01*
X0015624Y0198765D01*
X0015043Y0199346D01*
X0011579Y0199346D01*
X0009130Y0196897D01*
X0009130Y0196075D01*
X0005338Y0192283D01*
X0004790Y0190960D01*
X0004790Y0190629D01*
X0004453Y0190292D01*
X0004453Y0200087D01*
X0096972Y0200087D01*
X0096972Y0107567D01*
X0064096Y0107567D01*
X0067980Y0111450D01*
X0069419Y0111450D01*
X0071247Y0112208D01*
X0072366Y0113327D01*
X0073485Y0112208D01*
X0075314Y0111450D01*
X0077293Y0111450D01*
X0079121Y0112208D01*
X0080521Y0113607D01*
X0080628Y0113867D01*
X0080840Y0113575D01*
X0081327Y0113088D01*
X0081884Y0112684D01*
X0082498Y0112371D01*
X0083153Y0112158D01*
X0083833Y0112050D01*
X0084177Y0112050D01*
X0084177Y0116425D01*
X0084177Y0116425D01*
X0084177Y0112050D01*
X0084521Y0112050D01*
X0085202Y0112158D01*
X0085856Y0112371D01*
X0086470Y0112684D01*
X0087027Y0113088D01*
X0087514Y0113575D01*
X0087919Y0114132D01*
X0088231Y0114746D01*
X0088444Y0115401D01*
X0088552Y0116081D01*
X0088552Y0116425D01*
X0084177Y0116425D01*
X0084177Y0116425D01*
X0084177Y0120800D01*
X0083833Y0120800D01*
X0083153Y0120692D01*
X0082498Y0120479D01*
X0081884Y0120167D01*
X0081327Y0119762D01*
X0080840Y0119275D01*
X0080628Y0118983D01*
X0080521Y0119243D01*
X0079121Y0120643D01*
X0077293Y0121400D01*
X0075314Y0121400D01*
X0073485Y0120643D01*
X0072366Y0119524D01*
X0071247Y0120643D01*
X0069419Y0121400D01*
X0067440Y0121400D01*
X0065611Y0120643D01*
X0065212Y0120244D01*
X0065165Y0120359D01*
X0064489Y0121035D01*
X0063607Y0121400D01*
X0060106Y0121400D01*
X0052525Y0128981D01*
X0051349Y0129468D01*
X0034322Y0129468D01*
X0032136Y0131654D01*
X0033930Y0130910D01*
X0035999Y0130910D01*
X0037910Y0131702D01*
X0039326Y0133118D01*
X0039330Y0133114D01*
X0039842Y0132602D01*
X0040428Y0132176D01*
X0041073Y0131847D01*
X0041761Y0131623D01*
X0042477Y0131510D01*
X0042839Y0131510D01*
X0043201Y0131510D01*
X0043916Y0131623D01*
X0044604Y0131847D01*
X0045249Y0132176D01*
X0045835Y0132602D01*
X0046347Y0133114D01*
X0046351Y0133118D01*
X0047767Y0131702D01*
X0049678Y0130910D01*
X0051747Y0130910D01*
X0053658Y0131702D01*
X0054650Y0132693D01*
X0055641Y0131702D01*
X0057552Y0130910D01*
X0059621Y0130910D01*
X0061532Y0131702D01*
X0062524Y0132693D01*
X0063515Y0131702D01*
X0065426Y0130910D01*
X0067495Y0130910D01*
X0069406Y0131702D01*
X0070398Y0132693D01*
X0071389Y0131702D01*
X0073300Y0130910D01*
X0075369Y0130910D01*
X0077280Y0131702D01*
X0078272Y0132693D01*
X0079263Y0131702D01*
X0081174Y0130910D01*
X0083243Y0130910D01*
X0085154Y0131702D01*
X0086146Y0132693D01*
X0087137Y0131702D01*
X0089048Y0130910D01*
X0091117Y0130910D01*
X0093028Y0131702D01*
X0094491Y0133165D01*
X0095283Y0135076D01*
X0095283Y0137145D01*
X0094491Y0139056D01*
X0093028Y0140519D01*
X0091117Y0141310D01*
X0089048Y0141310D01*
X0087137Y0140519D01*
X0086146Y0139527D01*
X0085154Y0140519D01*
X0083243Y0141310D01*
X0081174Y0141310D01*
X0079263Y0140519D01*
X0078272Y0139527D01*
X0077280Y0140519D01*
X0075369Y0141310D01*
X0073300Y0141310D01*
X0071389Y0140519D01*
X0070398Y0139527D01*
X0069406Y0140519D01*
X0067495Y0141310D01*
X0065426Y0141310D01*
X0063515Y0140519D01*
X0062524Y0139527D01*
X0061532Y0140519D01*
X0059621Y0141310D01*
X0057552Y0141310D01*
X0055641Y0140519D01*
X0054650Y0139527D01*
X0053658Y0140519D01*
X0051747Y0141310D01*
X0049678Y0141310D01*
X0047767Y0140519D01*
X0046351Y0139102D01*
X0046347Y0139107D01*
X0045835Y0139619D01*
X0045249Y0140045D01*
X0044604Y0140373D01*
X0043916Y0140597D01*
X0043201Y0140710D01*
X0042839Y0140710D01*
X0042839Y0136110D01*
X0042839Y0131510D01*
X0042839Y0136110D01*
X0042839Y0136110D01*
X0042839Y0136110D01*
X0042839Y0140710D01*
X0042477Y0140710D01*
X0041761Y0140597D01*
X0041073Y0140373D01*
X0040428Y0140045D01*
X0039842Y0139619D01*
X0039330Y0139107D01*
X0039326Y0139102D01*
X0037910Y0140519D01*
X0035999Y0141310D01*
X0033930Y0141310D01*
X0032019Y0140519D01*
X0031028Y0139527D01*
X0030291Y0140264D01*
X0030291Y0140690D01*
X0053025Y0163425D01*
X0054413Y0163425D01*
X0056862Y0165874D01*
X0056862Y0169338D01*
X0054413Y0171787D01*
X0050964Y0171787D01*
X0052925Y0173748D01*
X0052925Y0177212D01*
X0050476Y0179661D01*
X0047012Y0179661D01*
X0044563Y0177212D01*
X0044563Y0175825D01*
X0042649Y0173911D01*
X0042605Y0174018D01*
X0041376Y0175247D01*
X0039771Y0175912D01*
X0038033Y0175912D01*
X0036427Y0175247D01*
X0035198Y0174018D01*
X0034533Y0172412D01*
X0034533Y0170674D01*
X0035198Y0169069D01*
X0036427Y0167840D01*
X0036534Y0167796D01*
X0017404Y0148666D01*
X0016504Y0147765D01*
X0016017Y0146589D01*
X0016017Y0140264D01*
X0015280Y0139527D01*
X0014288Y0140519D01*
X0012377Y0141310D01*
X0010308Y0141310D01*
X0008397Y0140519D01*
X0006934Y0139056D01*
X0006143Y0137145D01*
X0006143Y0135076D01*
X0006934Y0133165D01*
X0008397Y0131702D01*
X0010308Y0130910D01*
X0012377Y0130910D01*
X0014288Y0131702D01*
X0015280Y0132693D01*
X0016017Y0131956D01*
X0016017Y0131537D01*
X0016504Y0130361D01*
X0017404Y0129460D01*
X0021922Y0124942D01*
X0021922Y0120261D01*
X0021905Y0120244D01*
X0021857Y0120359D01*
X0021182Y0121035D01*
X0020300Y0121400D01*
X0014196Y0121400D01*
X0013314Y0121035D01*
X0012639Y0120359D01*
X0012273Y0119477D01*
X0012273Y0113373D01*
X0012639Y0112491D01*
X0013314Y0111816D01*
X0014196Y0111450D01*
X0020300Y0111450D01*
X0021182Y0111816D01*
X0021857Y0112491D01*
X0021905Y0112606D01*
X0021922Y0112590D01*
X0021922Y0111852D01*
X0022409Y0110676D01*
X0023309Y0109775D01*
X0025518Y0107567D01*
X0004453Y0107567D01*
X0004453Y0156234D01*
X0004477Y0156176D01*
X0005282Y0155371D01*
X0005155Y0155244D01*
X0004893Y0154853D01*
X0004713Y0154418D01*
X0004621Y0153956D01*
X0004621Y0152527D01*
X0008205Y0152527D01*
X0008205Y0152158D01*
X0004621Y0152158D01*
X0004621Y0150729D01*
X0004713Y0150267D01*
X0004893Y0149832D01*
X0005155Y0149441D01*
X0005488Y0149108D01*
X0005879Y0148846D01*
X0006315Y0148666D01*
X0006776Y0148574D01*
X0008205Y0148574D01*
X0008205Y0152158D01*
X0008574Y0152158D01*
X0008574Y0148574D01*
X0010003Y0148574D01*
X0010465Y0148666D01*
X0010900Y0148846D01*
X0011292Y0149108D01*
X0011625Y0149441D01*
X0011886Y0149832D01*
X0012066Y0150267D01*
X0012158Y0150729D01*
X0012158Y0152158D01*
X0008574Y0152158D01*
X0008574Y0152527D01*
X0012158Y0152527D01*
X0012158Y0153956D01*
X0012066Y0154418D01*
X0011886Y0154853D01*
X0011625Y0155244D01*
X0011498Y0155371D01*
X0012303Y0156176D01*
X0012758Y0157275D01*
X0012758Y0161221D01*
X0012303Y0162320D01*
X0011590Y0163033D01*
X0011590Y0165301D01*
X0011909Y0165216D01*
X0019811Y0165216D01*
X0019811Y0170743D01*
X0021411Y0170743D01*
X0021411Y0165216D01*
X0029313Y0165216D01*
X0029770Y0165338D01*
X0030181Y0165575D01*
X0030516Y0165911D01*
X0030753Y0166321D01*
X0030876Y0166779D01*
X0030876Y0170743D01*
X0021411Y0170743D01*
X0021411Y0172343D01*
X0030876Y0172343D01*
X0030876Y0176308D01*
X0030753Y0176766D01*
X0030516Y0177176D01*
X0030181Y0177511D01*
X0029770Y0177748D01*
X0029313Y0177871D01*
X0021411Y0177871D01*
X0021411Y0172343D01*
X0019811Y0172343D01*
X0019811Y0177871D01*
X0012758Y0177871D01*
X0012758Y0182651D01*
X0012467Y0183354D01*
X0012758Y0184058D01*
X0012758Y0189344D01*
X0012706Y0189469D01*
X0014221Y0190984D01*
X0015043Y0190984D01*
X0015624Y0191565D01*
X0083933Y0191565D01*
X0083933Y0191465D01*
X0086382Y0189016D01*
X0089846Y0189016D01*
X0092295Y0191465D01*
X0092295Y0193215D02*
X0096972Y0193215D01*
X0096972Y0194813D02*
X0092295Y0194813D01*
X0090812Y0196412D02*
X0096972Y0196412D01*
X0096972Y0198010D02*
X0088392Y0198010D01*
X0090848Y0190018D02*
X0096972Y0190018D01*
X0096972Y0188419D02*
X0067309Y0188419D01*
X0068102Y0187626D02*
X0068102Y0186238D01*
X0076506Y0177835D01*
X0076776Y0178105D01*
X0077658Y0178471D01*
X0093023Y0178471D01*
X0093905Y0178105D01*
X0094580Y0177430D01*
X0094945Y0176548D01*
X0094945Y0166538D01*
X0094580Y0165656D01*
X0093905Y0164981D01*
X0093023Y0164616D01*
X0077658Y0164616D01*
X0076776Y0164981D01*
X0076101Y0165656D01*
X0075736Y0166538D01*
X0075736Y0169554D01*
X0075559Y0169731D01*
X0073388Y0171901D01*
X0073388Y0170557D01*
X0072633Y0168734D01*
X0071238Y0167339D01*
X0069416Y0166584D01*
X0067443Y0166584D01*
X0065620Y0167339D01*
X0064225Y0168734D01*
X0063470Y0170557D01*
X0063470Y0172530D01*
X0064225Y0174352D01*
X0065620Y0175747D01*
X0067443Y0176502D01*
X0068787Y0176502D01*
X0063577Y0181713D01*
X0062189Y0181713D01*
X0059740Y0184162D01*
X0059740Y0187626D01*
X0062189Y0190075D01*
X0065653Y0190075D01*
X0068102Y0187626D01*
X0068102Y0186821D02*
X0096972Y0186821D01*
X0096972Y0185222D02*
X0069118Y0185222D01*
X0070717Y0183624D02*
X0096972Y0183624D01*
X0096972Y0182025D02*
X0072315Y0182025D01*
X0073914Y0180427D02*
X0096972Y0180427D01*
X0096972Y0178828D02*
X0075512Y0178828D01*
X0068060Y0177230D02*
X0052908Y0177230D01*
X0052925Y0175631D02*
X0065504Y0175631D01*
X0064093Y0174033D02*
X0052925Y0174033D01*
X0051611Y0172434D02*
X0063470Y0172434D01*
X0063470Y0170836D02*
X0055365Y0170836D01*
X0056862Y0169237D02*
X0064017Y0169237D01*
X0065321Y0167639D02*
X0056862Y0167639D01*
X0056862Y0166040D02*
X0075942Y0166040D01*
X0075736Y0167639D02*
X0071538Y0167639D01*
X0072842Y0169237D02*
X0075736Y0169237D01*
X0074454Y0170836D02*
X0073388Y0170836D01*
X0078272Y0171543D02*
X0085341Y0171543D01*
X0078272Y0171543D02*
X0063921Y0185894D01*
X0060278Y0183624D02*
X0012578Y0183624D01*
X0012758Y0185222D02*
X0059740Y0185222D01*
X0059740Y0186821D02*
X0012758Y0186821D01*
X0012758Y0188419D02*
X0060534Y0188419D01*
X0062132Y0190018D02*
X0013255Y0190018D01*
X0007868Y0194813D02*
X0004453Y0194813D01*
X0004453Y0193215D02*
X0006269Y0193215D01*
X0005062Y0191616D02*
X0004453Y0191616D01*
X0004453Y0196412D02*
X0009130Y0196412D01*
X0010243Y0198010D02*
X0004453Y0198010D01*
X0004453Y0199609D02*
X0096972Y0199609D01*
X0085380Y0190018D02*
X0065710Y0190018D01*
X0061877Y0182025D02*
X0012758Y0182025D01*
X0012758Y0180427D02*
X0064863Y0180427D01*
X0066461Y0178828D02*
X0051309Y0178828D01*
X0048744Y0175480D02*
X0019217Y0145953D01*
X0019217Y0136110D01*
X0019217Y0132173D01*
X0025122Y0126268D01*
X0025122Y0116425D01*
X0025122Y0112488D01*
X0029059Y0108551D01*
X0060555Y0108551D01*
X0068429Y0116425D01*
X0069999Y0111691D02*
X0074733Y0111691D01*
X0072404Y0113289D02*
X0072329Y0113289D01*
X0077873Y0111691D02*
X0096972Y0111691D01*
X0096972Y0113289D02*
X0087228Y0113289D01*
X0088278Y0114888D02*
X0096972Y0114888D01*
X0096972Y0116486D02*
X0088552Y0116486D01*
X0088552Y0116425D02*
X0088552Y0116770D01*
X0088444Y0117450D01*
X0088231Y0118105D01*
X0087919Y0118718D01*
X0087514Y0119275D01*
X0087027Y0119762D01*
X0086470Y0120167D01*
X0085856Y0120479D01*
X0085202Y0120692D01*
X0084521Y0120800D01*
X0084177Y0120800D01*
X0084177Y0116425D01*
X0084177Y0116425D01*
X0088552Y0116425D01*
X0088238Y0118085D02*
X0096972Y0118085D01*
X0096972Y0119683D02*
X0087106Y0119683D01*
X0084177Y0119683D02*
X0084177Y0119683D01*
X0084177Y0118085D02*
X0084177Y0118085D01*
X0084177Y0116486D02*
X0084177Y0116486D01*
X0084177Y0114888D02*
X0084177Y0114888D01*
X0084177Y0113289D02*
X0084177Y0113289D01*
X0081126Y0113289D02*
X0080203Y0113289D01*
X0080080Y0119683D02*
X0081248Y0119683D01*
X0077578Y0121282D02*
X0096972Y0121282D01*
X0096972Y0122880D02*
X0058625Y0122880D01*
X0057027Y0124479D02*
X0096972Y0124479D01*
X0096972Y0126077D02*
X0055428Y0126077D01*
X0053830Y0127676D02*
X0096972Y0127676D01*
X0096972Y0129274D02*
X0051816Y0129274D01*
X0050713Y0126268D02*
X0060555Y0116425D01*
X0056777Y0111751D02*
X0034712Y0111751D01*
X0035814Y0112208D01*
X0037213Y0113607D01*
X0037321Y0113867D01*
X0037533Y0113575D01*
X0038020Y0113088D01*
X0038577Y0112684D01*
X0039191Y0112371D01*
X0039846Y0112158D01*
X0040526Y0112050D01*
X0040870Y0112050D01*
X0040870Y0116425D01*
X0040870Y0116425D01*
X0040870Y0112050D01*
X0041214Y0112050D01*
X0041895Y0112158D01*
X0042549Y0112371D01*
X0043163Y0112684D01*
X0043720Y0113088D01*
X0044207Y0113575D01*
X0044612Y0114132D01*
X0044924Y0114746D01*
X0045137Y0115401D01*
X0045245Y0116081D01*
X0045245Y0116425D01*
X0040870Y0116425D01*
X0040870Y0116425D01*
X0045245Y0116425D01*
X0045245Y0116770D01*
X0045137Y0117450D01*
X0044924Y0118105D01*
X0044612Y0118718D01*
X0044207Y0119275D01*
X0043720Y0119762D01*
X0043163Y0120167D01*
X0042549Y0120479D01*
X0041895Y0120692D01*
X0041214Y0120800D01*
X0040870Y0120800D01*
X0040526Y0120800D01*
X0039846Y0120692D01*
X0039191Y0120479D01*
X0038577Y0120167D01*
X0038020Y0119762D01*
X0037533Y0119275D01*
X0037321Y0118983D01*
X0037213Y0119243D01*
X0035814Y0120643D01*
X0033986Y0121400D01*
X0032007Y0121400D01*
X0030178Y0120643D01*
X0029059Y0119524D01*
X0028322Y0120261D01*
X0028322Y0126416D01*
X0030283Y0124455D01*
X0031183Y0123555D01*
X0032360Y0123068D01*
X0049387Y0123068D01*
X0055580Y0116875D01*
X0055580Y0113373D01*
X0055946Y0112491D01*
X0056621Y0111816D01*
X0056777Y0111751D01*
X0055615Y0113289D02*
X0043921Y0113289D01*
X0044970Y0114888D02*
X0055580Y0114888D01*
X0055580Y0116486D02*
X0045245Y0116486D01*
X0044931Y0118085D02*
X0054370Y0118085D01*
X0052772Y0119683D02*
X0043799Y0119683D01*
X0040870Y0119683D02*
X0040870Y0119683D01*
X0040870Y0120800D02*
X0040870Y0116425D01*
X0040870Y0116425D01*
X0040870Y0120800D01*
X0040870Y0118085D02*
X0040870Y0118085D01*
X0040870Y0116486D02*
X0040870Y0116486D01*
X0040870Y0114888D02*
X0040870Y0114888D01*
X0040870Y0113289D02*
X0040870Y0113289D01*
X0037819Y0113289D02*
X0036896Y0113289D01*
X0036773Y0119683D02*
X0037941Y0119683D01*
X0034271Y0121282D02*
X0051173Y0121282D01*
X0049575Y0122880D02*
X0028322Y0122880D01*
X0028322Y0121282D02*
X0031721Y0121282D01*
X0029219Y0119683D02*
X0028899Y0119683D01*
X0028322Y0124479D02*
X0030259Y0124479D01*
X0028661Y0126077D02*
X0028322Y0126077D01*
X0032996Y0126268D02*
X0050713Y0126268D01*
X0054428Y0132471D02*
X0054872Y0132471D01*
X0062302Y0132471D02*
X0062746Y0132471D01*
X0070176Y0132471D02*
X0070620Y0132471D01*
X0078050Y0132471D02*
X0078494Y0132471D01*
X0085924Y0132471D02*
X0086368Y0132471D01*
X0093798Y0132471D02*
X0096972Y0132471D01*
X0096972Y0130873D02*
X0032916Y0130873D01*
X0032996Y0126268D02*
X0027091Y0132173D01*
X0027091Y0136110D01*
X0027091Y0142016D01*
X0052681Y0167606D01*
X0055429Y0164442D02*
X0096972Y0164442D01*
X0096972Y0166040D02*
X0094739Y0166040D01*
X0094945Y0167639D02*
X0096972Y0167639D01*
X0096972Y0169237D02*
X0094945Y0169237D01*
X0094945Y0170836D02*
X0096972Y0170836D01*
X0096972Y0172434D02*
X0094945Y0172434D01*
X0094945Y0174033D02*
X0096972Y0174033D01*
X0096972Y0175631D02*
X0094945Y0175631D01*
X0094663Y0177230D02*
X0096972Y0177230D01*
X0106815Y0180008D02*
X0106815Y0159248D01*
X0111183Y0159646D02*
X0126810Y0159646D01*
X0128408Y0161245D02*
X0111174Y0161245D01*
X0110205Y0162843D02*
X0130007Y0162843D01*
X0131605Y0164442D02*
X0110015Y0164442D01*
X0111183Y0158048D02*
X0125211Y0158048D01*
X0123613Y0156449D02*
X0110841Y0156449D01*
X0110312Y0154851D02*
X0122014Y0154851D01*
X0120416Y0153252D02*
X0110583Y0153252D01*
X0110583Y0151654D02*
X0118817Y0151654D01*
X0117218Y0150055D02*
X0110404Y0150055D01*
X0106999Y0150055D02*
X0106631Y0150055D01*
X0106631Y0148574D02*
X0105202Y0148574D01*
X0104740Y0148666D01*
X0104305Y0148846D01*
X0103913Y0149108D01*
X0103580Y0149441D01*
X0103319Y0149832D01*
X0103138Y0150267D01*
X0103046Y0150729D01*
X0103046Y0152158D01*
X0106631Y0152158D01*
X0106631Y0148574D01*
X0106631Y0151654D02*
X0106999Y0151654D01*
X0103046Y0151654D02*
X0102878Y0151654D01*
X0102878Y0153252D02*
X0103046Y0153252D01*
X0102878Y0154851D02*
X0103318Y0154851D01*
X0103226Y0150055D02*
X0102878Y0150055D01*
X0102878Y0148456D02*
X0115620Y0148456D01*
X0114553Y0146858D02*
X0102878Y0146858D01*
X0102878Y0145259D02*
X0114442Y0145259D01*
X0114442Y0143661D02*
X0102878Y0143661D01*
X0102878Y0142062D02*
X0114442Y0142062D01*
X0114442Y0140464D02*
X0112768Y0140464D01*
X0117642Y0136110D02*
X0117642Y0145953D01*
X0147169Y0175480D01*
X0150036Y0172434D02*
X0161895Y0172434D01*
X0161895Y0170836D02*
X0153790Y0170836D01*
X0155287Y0169237D02*
X0162442Y0169237D01*
X0163746Y0167639D02*
X0155287Y0167639D01*
X0155287Y0166040D02*
X0174367Y0166040D01*
X0174161Y0167639D02*
X0169963Y0167639D01*
X0171267Y0169237D02*
X0174161Y0169237D01*
X0172879Y0170836D02*
X0171813Y0170836D01*
X0176697Y0171543D02*
X0183766Y0171543D01*
X0176697Y0171543D02*
X0162346Y0185894D01*
X0165734Y0188419D02*
X0195398Y0188419D01*
X0195398Y0186821D02*
X0166528Y0186821D01*
X0167543Y0185222D02*
X0195398Y0185222D01*
X0195398Y0183624D02*
X0169142Y0183624D01*
X0170740Y0182025D02*
X0195398Y0182025D01*
X0195398Y0180427D02*
X0172339Y0180427D01*
X0173937Y0178828D02*
X0195398Y0178828D01*
X0195398Y0177230D02*
X0193088Y0177230D01*
X0193370Y0175631D02*
X0195398Y0175631D01*
X0195398Y0174033D02*
X0193370Y0174033D01*
X0193370Y0172434D02*
X0195398Y0172434D01*
X0195398Y0170836D02*
X0193370Y0170836D01*
X0193370Y0169237D02*
X0195398Y0169237D01*
X0195398Y0167639D02*
X0193370Y0167639D01*
X0193164Y0166040D02*
X0195398Y0166040D01*
X0195398Y0164442D02*
X0153855Y0164442D01*
X0150869Y0162843D02*
X0195398Y0162843D01*
X0195398Y0161245D02*
X0149270Y0161245D01*
X0147672Y0159646D02*
X0195398Y0159646D01*
X0195398Y0158048D02*
X0146073Y0158048D01*
X0144475Y0156449D02*
X0195398Y0156449D01*
X0195398Y0154851D02*
X0142876Y0154851D01*
X0141277Y0153252D02*
X0195398Y0153252D01*
X0195398Y0151654D02*
X0139679Y0151654D01*
X0138080Y0150055D02*
X0195398Y0150055D01*
X0195398Y0148456D02*
X0136482Y0148456D01*
X0134883Y0146858D02*
X0195398Y0146858D01*
X0195398Y0145259D02*
X0133285Y0145259D01*
X0131686Y0143661D02*
X0195398Y0143661D01*
X0195398Y0142062D02*
X0130088Y0142062D01*
X0130390Y0140464D02*
X0128716Y0140464D01*
X0125516Y0142016D02*
X0125516Y0136110D01*
X0125516Y0132173D01*
X0131421Y0126268D01*
X0149138Y0126268D01*
X0158980Y0116425D01*
X0154006Y0116486D02*
X0143670Y0116486D01*
X0143670Y0116425D02*
X0143670Y0116770D01*
X0143562Y0117450D01*
X0143350Y0118105D01*
X0143037Y0118718D01*
X0142632Y0119275D01*
X0142145Y0119762D01*
X0141588Y0120167D01*
X0140975Y0120479D01*
X0140320Y0120692D01*
X0139640Y0120800D01*
X0139295Y0120800D01*
X0138951Y0120800D01*
X0138271Y0120692D01*
X0137616Y0120479D01*
X0137002Y0120167D01*
X0136445Y0119762D01*
X0135958Y0119275D01*
X0135746Y0118983D01*
X0135639Y0119243D01*
X0134239Y0120643D01*
X0132411Y0121400D01*
X0130432Y0121400D01*
X0128603Y0120643D01*
X0127484Y0119524D01*
X0126747Y0120261D01*
X0126747Y0126416D01*
X0129609Y0123555D01*
X0130785Y0123068D01*
X0147812Y0123068D01*
X0154006Y0116875D01*
X0154006Y0113373D01*
X0154371Y0112491D01*
X0155046Y0111816D01*
X0155202Y0111751D01*
X0133137Y0111751D01*
X0134239Y0112208D01*
X0135639Y0113607D01*
X0135746Y0113867D01*
X0135958Y0113575D01*
X0136445Y0113088D01*
X0137002Y0112684D01*
X0137616Y0112371D01*
X0138271Y0112158D01*
X0138951Y0112050D01*
X0139295Y0112050D01*
X0139295Y0116425D01*
X0139295Y0116425D01*
X0139295Y0112050D01*
X0139640Y0112050D01*
X0140320Y0112158D01*
X0140975Y0112371D01*
X0141588Y0112684D01*
X0142145Y0113088D01*
X0142632Y0113575D01*
X0143037Y0114132D01*
X0143350Y0114746D01*
X0143562Y0115401D01*
X0143670Y0116081D01*
X0143670Y0116425D01*
X0139295Y0116425D01*
X0139295Y0120800D01*
X0139295Y0116425D01*
X0139295Y0116425D01*
X0139295Y0116425D01*
X0143670Y0116425D01*
X0143396Y0114888D02*
X0154006Y0114888D01*
X0154040Y0113289D02*
X0142346Y0113289D01*
X0139295Y0113289D02*
X0139295Y0113289D01*
X0139295Y0114888D02*
X0139295Y0114888D01*
X0139295Y0116486D02*
X0139295Y0116486D01*
X0139295Y0118085D02*
X0139295Y0118085D01*
X0139295Y0119683D02*
X0139295Y0119683D01*
X0136366Y0119683D02*
X0135199Y0119683D01*
X0132696Y0121282D02*
X0149598Y0121282D01*
X0148000Y0122880D02*
X0126747Y0122880D01*
X0126747Y0121282D02*
X0130146Y0121282D01*
X0128685Y0124479D02*
X0126747Y0124479D01*
X0126747Y0126077D02*
X0127086Y0126077D01*
X0123547Y0126268D02*
X0117642Y0132173D01*
X0117642Y0136110D01*
X0113927Y0132471D02*
X0113483Y0132471D01*
X0114717Y0130873D02*
X0102878Y0130873D01*
X0102878Y0132471D02*
X0106053Y0132471D01*
X0104984Y0134070D02*
X0102878Y0134070D01*
X0102878Y0135668D02*
X0104568Y0135668D01*
X0104618Y0137267D02*
X0102878Y0137267D01*
X0102878Y0138865D02*
X0105281Y0138865D01*
X0106767Y0140464D02*
X0102878Y0140464D01*
X0096972Y0140464D02*
X0093083Y0140464D01*
X0094570Y0138865D02*
X0096972Y0138865D01*
X0096972Y0137267D02*
X0095232Y0137267D01*
X0095283Y0135668D02*
X0096972Y0135668D01*
X0096972Y0134070D02*
X0094866Y0134070D01*
X0096972Y0142062D02*
X0031663Y0142062D01*
X0031964Y0140464D02*
X0030291Y0140464D01*
X0033261Y0143661D02*
X0096972Y0143661D01*
X0096972Y0145259D02*
X0034860Y0145259D01*
X0036458Y0146858D02*
X0096972Y0146858D01*
X0096972Y0148456D02*
X0038057Y0148456D01*
X0039655Y0150055D02*
X0096972Y0150055D01*
X0096972Y0151654D02*
X0041254Y0151654D01*
X0042852Y0153252D02*
X0096972Y0153252D01*
X0096972Y0154851D02*
X0044451Y0154851D01*
X0046049Y0156449D02*
X0096972Y0156449D01*
X0096972Y0158048D02*
X0047648Y0158048D01*
X0049246Y0159646D02*
X0096972Y0159646D01*
X0096972Y0161245D02*
X0050845Y0161245D01*
X0052443Y0162843D02*
X0096972Y0162843D01*
X0111183Y0178828D02*
X0144604Y0178828D01*
X0143006Y0177230D02*
X0128888Y0177230D01*
X0129301Y0175631D02*
X0135780Y0175631D01*
X0133638Y0174033D02*
X0129301Y0174033D01*
X0129301Y0172434D02*
X0132967Y0172434D01*
X0132958Y0170836D02*
X0119836Y0170836D01*
X0119836Y0172434D02*
X0118236Y0172434D01*
X0118236Y0174033D02*
X0119836Y0174033D01*
X0119836Y0175631D02*
X0118236Y0175631D01*
X0118236Y0177230D02*
X0119836Y0177230D01*
X0119836Y0169237D02*
X0118236Y0169237D01*
X0118236Y0167639D02*
X0119836Y0167639D01*
X0119836Y0166040D02*
X0118236Y0166040D01*
X0129016Y0166040D02*
X0133204Y0166040D01*
X0134802Y0167639D02*
X0129301Y0167639D01*
X0129301Y0169237D02*
X0133554Y0169237D01*
X0138873Y0175631D02*
X0142795Y0175631D01*
X0141196Y0174033D02*
X0141015Y0174033D01*
X0149734Y0178828D02*
X0164886Y0178828D01*
X0163288Y0180427D02*
X0111183Y0180427D01*
X0111183Y0182025D02*
X0160302Y0182025D01*
X0158703Y0183624D02*
X0111004Y0183624D01*
X0111183Y0185222D02*
X0158165Y0185222D01*
X0151333Y0177230D02*
X0166485Y0177230D01*
X0163929Y0175631D02*
X0151350Y0175631D01*
X0151350Y0174033D02*
X0162518Y0174033D01*
X0151106Y0167606D02*
X0125516Y0142016D01*
X0136390Y0140464D02*
X0139777Y0140464D01*
X0141264Y0140464D02*
X0141264Y0140464D01*
X0142750Y0140464D02*
X0146138Y0140464D01*
X0141264Y0138865D02*
X0141264Y0138865D01*
X0141264Y0137267D02*
X0141264Y0137267D01*
X0141264Y0135668D02*
X0141264Y0135668D01*
X0141264Y0134070D02*
X0141264Y0134070D01*
X0141264Y0132471D02*
X0141264Y0132471D01*
X0138446Y0132471D02*
X0137105Y0132471D01*
X0131342Y0130873D02*
X0195398Y0130873D01*
X0195398Y0132471D02*
X0192223Y0132471D01*
X0193291Y0134070D02*
X0195398Y0134070D01*
X0195398Y0135668D02*
X0193708Y0135668D01*
X0193657Y0137267D02*
X0195398Y0137267D01*
X0195398Y0138865D02*
X0192995Y0138865D01*
X0191508Y0140464D02*
X0195398Y0140464D01*
X0185508Y0140464D02*
X0183634Y0140464D01*
X0177634Y0140464D02*
X0175760Y0140464D01*
X0169760Y0140464D02*
X0167886Y0140464D01*
X0161886Y0140464D02*
X0160012Y0140464D01*
X0154012Y0140464D02*
X0152138Y0140464D01*
X0152853Y0132471D02*
X0153297Y0132471D01*
X0150241Y0129274D02*
X0195398Y0129274D01*
X0195398Y0127676D02*
X0152255Y0127676D01*
X0153854Y0126077D02*
X0195398Y0126077D01*
X0195398Y0124479D02*
X0155452Y0124479D01*
X0157051Y0122880D02*
X0195398Y0122880D01*
X0195398Y0121282D02*
X0176003Y0121282D01*
X0178506Y0119683D02*
X0179674Y0119683D01*
X0182602Y0119683D02*
X0182602Y0119683D01*
X0182602Y0120800D02*
X0182602Y0116425D01*
X0182602Y0116425D01*
X0182602Y0116425D01*
X0186977Y0116425D01*
X0186977Y0116770D01*
X0186869Y0117450D01*
X0186657Y0118105D01*
X0186344Y0118718D01*
X0185939Y0119275D01*
X0185452Y0119762D01*
X0184895Y0120167D01*
X0184282Y0120479D01*
X0183627Y0120692D01*
X0182947Y0120800D01*
X0182602Y0120800D01*
X0185531Y0119683D02*
X0195398Y0119683D01*
X0195398Y0118085D02*
X0186663Y0118085D01*
X0186977Y0116486D02*
X0195398Y0116486D01*
X0195398Y0114888D02*
X0186703Y0114888D01*
X0185653Y0113289D02*
X0195398Y0113289D01*
X0195398Y0111691D02*
X0176298Y0111691D01*
X0178628Y0113289D02*
X0179551Y0113289D01*
X0182602Y0113289D02*
X0182602Y0113289D01*
X0182602Y0114888D02*
X0182602Y0114888D01*
X0182602Y0116486D02*
X0182602Y0116486D01*
X0182602Y0118085D02*
X0182602Y0118085D01*
X0173453Y0121282D02*
X0168129Y0121282D01*
X0170632Y0119683D02*
X0170951Y0119683D01*
X0166854Y0116425D02*
X0158980Y0108551D01*
X0127484Y0108551D01*
X0123547Y0112488D01*
X0123547Y0116425D01*
X0123547Y0126268D01*
X0120347Y0124479D02*
X0102878Y0124479D01*
X0102878Y0126077D02*
X0119212Y0126077D01*
X0117614Y0127676D02*
X0102878Y0127676D01*
X0102878Y0129274D02*
X0116015Y0129274D01*
X0120347Y0122880D02*
X0102878Y0122880D01*
X0102878Y0121282D02*
X0112336Y0121282D01*
X0110784Y0119683D02*
X0102878Y0119683D01*
X0102878Y0118085D02*
X0110698Y0118085D01*
X0110698Y0116486D02*
X0102878Y0116486D01*
X0102878Y0114888D02*
X0110698Y0114888D01*
X0110733Y0113289D02*
X0102878Y0113289D01*
X0102878Y0111691D02*
X0112041Y0111691D01*
X0119306Y0111691D02*
X0120414Y0111691D01*
X0121418Y0110092D02*
X0102878Y0110092D01*
X0102878Y0108494D02*
X0123016Y0108494D01*
X0114049Y0100340D02*
X0113468Y0100921D01*
X0110004Y0100921D01*
X0107555Y0098472D01*
X0107555Y0097650D01*
X0104776Y0094871D01*
X0104776Y0094871D01*
X0103763Y0093858D01*
X0103215Y0092535D01*
X0103215Y0092204D01*
X0102878Y0091867D01*
X0102878Y0101661D01*
X0195398Y0101661D01*
X0195398Y0009142D01*
X0162522Y0009142D01*
X0166405Y0013025D01*
X0167844Y0013025D01*
X0169672Y0013783D01*
X0170791Y0014902D01*
X0171910Y0013783D01*
X0173739Y0013025D01*
X0175718Y0013025D01*
X0177546Y0013783D01*
X0178946Y0015182D01*
X0179053Y0015442D01*
X0179265Y0015150D01*
X0179752Y0014663D01*
X0180309Y0014258D01*
X0180923Y0013946D01*
X0181578Y0013733D01*
X0182258Y0013625D01*
X0182602Y0013625D01*
X0182602Y0018000D01*
X0182602Y0022375D01*
X0182258Y0022375D01*
X0181578Y0022267D01*
X0180923Y0022054D01*
X0180309Y0021742D01*
X0179752Y0021337D01*
X0179265Y0020850D01*
X0179053Y0020558D01*
X0178946Y0020818D01*
X0177546Y0022217D01*
X0175718Y0022975D01*
X0173739Y0022975D01*
X0171910Y0022217D01*
X0170791Y0021098D01*
X0169672Y0022217D01*
X0167844Y0022975D01*
X0165865Y0022975D01*
X0164036Y0022217D01*
X0163638Y0021819D01*
X0163590Y0021934D01*
X0162915Y0022609D01*
X0162033Y0022975D01*
X0158531Y0022975D01*
X0150950Y0030555D01*
X0149774Y0031043D01*
X0132747Y0031043D01*
X0130561Y0033228D01*
X0132355Y0032485D01*
X0134424Y0032485D01*
X0136335Y0033277D01*
X0137752Y0034693D01*
X0137755Y0034688D01*
X0138267Y0034176D01*
X0138853Y0033751D01*
X0139498Y0033422D01*
X0140187Y0033198D01*
X0140902Y0033085D01*
X0141264Y0033085D01*
X0141626Y0033085D01*
X0142341Y0033198D01*
X0143030Y0033422D01*
X0143675Y0033751D01*
X0144260Y0034176D01*
X0144772Y0034688D01*
X0144776Y0034693D01*
X0146192Y0033277D01*
X0148103Y0032485D01*
X0150172Y0032485D01*
X0152083Y0033277D01*
X0153075Y0034268D01*
X0154066Y0033277D01*
X0155977Y0032485D01*
X0158046Y0032485D01*
X0159957Y0033277D01*
X0160949Y0034268D01*
X0161940Y0033277D01*
X0163851Y0032485D01*
X0165920Y0032485D01*
X0167831Y0033277D01*
X0168823Y0034268D01*
X0169814Y0033277D01*
X0171725Y0032485D01*
X0173794Y0032485D01*
X0175705Y0033277D01*
X0176697Y0034268D01*
X0177688Y0033277D01*
X0179600Y0032485D01*
X0181668Y0032485D01*
X0183579Y0033277D01*
X0184571Y0034268D01*
X0185562Y0033277D01*
X0187474Y0032485D01*
X0189542Y0032485D01*
X0191453Y0033277D01*
X0192916Y0034739D01*
X0193708Y0036651D01*
X0193708Y0038719D01*
X0192916Y0040631D01*
X0191453Y0042093D01*
X0189542Y0042885D01*
X0187474Y0042885D01*
X0185562Y0042093D01*
X0184571Y0041102D01*
X0183579Y0042093D01*
X0181668Y0042885D01*
X0179600Y0042885D01*
X0177688Y0042093D01*
X0176697Y0041102D01*
X0175705Y0042093D01*
X0173794Y0042885D01*
X0171725Y0042885D01*
X0169814Y0042093D01*
X0168823Y0041102D01*
X0167831Y0042093D01*
X0165920Y0042885D01*
X0163851Y0042885D01*
X0161940Y0042093D01*
X0160949Y0041102D01*
X0159957Y0042093D01*
X0158046Y0042885D01*
X0155977Y0042885D01*
X0154066Y0042093D01*
X0153075Y0041102D01*
X0152083Y0042093D01*
X0150172Y0042885D01*
X0148103Y0042885D01*
X0146192Y0042093D01*
X0144776Y0040677D01*
X0144772Y0040682D01*
X0144260Y0041194D01*
X0143675Y0041619D01*
X0143030Y0041948D01*
X0142341Y0042172D01*
X0141626Y0042285D01*
X0141264Y0042285D01*
X0141264Y0037685D01*
X0141264Y0033085D01*
X0141264Y0037685D01*
X0141264Y0037685D01*
X0141264Y0037685D01*
X0141264Y0042285D01*
X0140902Y0042285D01*
X0140187Y0042172D01*
X0139498Y0041948D01*
X0138853Y0041619D01*
X0138267Y0041194D01*
X0137755Y0040682D01*
X0137752Y0040677D01*
X0136335Y0042093D01*
X0134424Y0042885D01*
X0132355Y0042885D01*
X0130444Y0042093D01*
X0129453Y0041102D01*
X0128716Y0041839D01*
X0128716Y0042265D01*
X0151451Y0065000D01*
X0152838Y0065000D01*
X0155287Y0067449D01*
X0155287Y0070913D01*
X0152838Y0073362D01*
X0149389Y0073362D01*
X0151350Y0075323D01*
X0151350Y0078787D01*
X0148901Y0081236D01*
X0145437Y0081236D01*
X0142988Y0078787D01*
X0142988Y0077399D01*
X0141074Y0075486D01*
X0141030Y0075593D01*
X0139801Y0076822D01*
X0138196Y0077487D01*
X0136458Y0077487D01*
X0134852Y0076822D01*
X0133623Y0075593D01*
X0132958Y0073987D01*
X0132958Y0072249D01*
X0133623Y0070644D01*
X0134852Y0069415D01*
X0134959Y0069370D01*
X0115829Y0050240D01*
X0114929Y0049340D01*
X0114442Y0048164D01*
X0114442Y0041839D01*
X0113705Y0041102D01*
X0112713Y0042093D01*
X0110802Y0042885D01*
X0108733Y0042885D01*
X0106822Y0042093D01*
X0105359Y0040631D01*
X0104568Y0038719D01*
X0104568Y0036651D01*
X0105359Y0034739D01*
X0106822Y0033277D01*
X0108733Y0032485D01*
X0110802Y0032485D01*
X0112713Y0033277D01*
X0113705Y0034268D01*
X0114442Y0033531D01*
X0114442Y0033112D01*
X0114929Y0031935D01*
X0115829Y0031035D01*
X0120347Y0026517D01*
X0120347Y0021835D01*
X0120331Y0021819D01*
X0120283Y0021934D01*
X0119608Y0022609D01*
X0118725Y0022975D01*
X0112621Y0022975D01*
X0111739Y0022609D01*
X0111064Y0021934D01*
X0110698Y0021052D01*
X0110698Y0014948D01*
X0111064Y0014066D01*
X0111739Y0013391D01*
X0112621Y0013025D01*
X0118725Y0013025D01*
X0119608Y0013391D01*
X0120283Y0014066D01*
X0120331Y0014181D01*
X0120347Y0014165D01*
X0120347Y0013426D01*
X0120834Y0012250D01*
X0121735Y0011350D01*
X0123943Y0009142D01*
X0102878Y0009142D01*
X0102878Y0057808D01*
X0102902Y0057751D01*
X0103707Y0056946D01*
X0103580Y0056819D01*
X0103319Y0056428D01*
X0103138Y0055993D01*
X0103046Y0055531D01*
X0103046Y0054102D01*
X0106631Y0054102D01*
X0106631Y0053733D01*
X0106999Y0053733D01*
X0106999Y0050149D01*
X0108428Y0050149D01*
X0108890Y0050241D01*
X0109325Y0050421D01*
X0109717Y0050683D01*
X0110050Y0051015D01*
X0110311Y0051407D01*
X0110492Y0051842D01*
X0110583Y0052304D01*
X0110583Y0053733D01*
X0106999Y0053733D01*
X0106999Y0054102D01*
X0110583Y0054102D01*
X0110583Y0055531D01*
X0110492Y0055993D01*
X0110311Y0056428D01*
X0110050Y0056819D01*
X0109923Y0056946D01*
X0110728Y0057751D01*
X0111183Y0058850D01*
X0111183Y0062796D01*
X0110728Y0063895D01*
X0110015Y0064608D01*
X0110015Y0066876D01*
X0110335Y0066791D01*
X0118236Y0066791D01*
X0118236Y0072318D01*
X0119836Y0072318D01*
X0119836Y0066791D01*
X0127738Y0066791D01*
X0128196Y0066913D01*
X0128606Y0067150D01*
X0128941Y0067485D01*
X0129178Y0067896D01*
X0129301Y0068354D01*
X0129301Y0072318D01*
X0119836Y0072318D01*
X0119836Y0073918D01*
X0118236Y0073918D01*
X0118236Y0079446D01*
X0111183Y0079446D01*
X0111183Y0084225D01*
X0110892Y0084929D01*
X0111183Y0085633D01*
X0111183Y0090918D01*
X0111131Y0091044D01*
X0112646Y0092559D01*
X0113468Y0092559D01*
X0114049Y0093140D01*
X0182358Y0093140D01*
X0182358Y0093040D01*
X0184808Y0090591D01*
X0188271Y0090591D01*
X0190720Y0093040D01*
X0190720Y0096504D01*
X0188271Y0098953D01*
X0187449Y0098953D01*
X0186610Y0099792D01*
X0185287Y0100340D01*
X0114049Y0100340D01*
X0113888Y0100501D02*
X0195398Y0100501D01*
X0195398Y0098903D02*
X0188321Y0098903D01*
X0189920Y0097304D02*
X0195398Y0097304D01*
X0195398Y0095706D02*
X0190720Y0095706D01*
X0190720Y0094107D02*
X0195398Y0094107D01*
X0195398Y0092509D02*
X0190189Y0092509D01*
X0188591Y0090910D02*
X0195398Y0090910D01*
X0195398Y0089312D02*
X0166416Y0089312D01*
X0166528Y0089200D02*
X0166528Y0087813D01*
X0174931Y0079410D01*
X0175202Y0079680D01*
X0176084Y0080046D01*
X0191448Y0080046D01*
X0192330Y0079680D01*
X0193005Y0079005D01*
X0193370Y0078123D01*
X0193370Y0068113D01*
X0193005Y0067231D01*
X0192330Y0066556D01*
X0191448Y0066191D01*
X0176084Y0066191D01*
X0175202Y0066556D01*
X0174526Y0067231D01*
X0174161Y0068113D01*
X0174161Y0071128D01*
X0173984Y0071305D01*
X0173984Y0071305D01*
X0171813Y0073476D01*
X0171813Y0072132D01*
X0171058Y0070309D01*
X0169663Y0068914D01*
X0167841Y0068159D01*
X0165868Y0068159D01*
X0164045Y0068914D01*
X0162650Y0070309D01*
X0161895Y0072132D01*
X0161895Y0074105D01*
X0162650Y0075927D01*
X0164045Y0077322D01*
X0165868Y0078077D01*
X0167212Y0078077D01*
X0162002Y0083287D01*
X0160615Y0083287D01*
X0158165Y0085737D01*
X0158165Y0089200D01*
X0160615Y0091650D01*
X0164078Y0091650D01*
X0166528Y0089200D01*
X0166627Y0087713D02*
X0195398Y0087713D01*
X0195398Y0086115D02*
X0168226Y0086115D01*
X0169824Y0084516D02*
X0195398Y0084516D01*
X0195398Y0082918D02*
X0171423Y0082918D01*
X0173021Y0081319D02*
X0195398Y0081319D01*
X0195398Y0079720D02*
X0192233Y0079720D01*
X0193370Y0078122D02*
X0195398Y0078122D01*
X0195398Y0076523D02*
X0193370Y0076523D01*
X0193370Y0074925D02*
X0195398Y0074925D01*
X0195398Y0073326D02*
X0193370Y0073326D01*
X0193370Y0071728D02*
X0195398Y0071728D01*
X0195398Y0070129D02*
X0193370Y0070129D01*
X0193370Y0068531D02*
X0195398Y0068531D01*
X0195398Y0066932D02*
X0192706Y0066932D01*
X0195398Y0065334D02*
X0153172Y0065334D01*
X0154771Y0066932D02*
X0174825Y0066932D01*
X0174161Y0068531D02*
X0168738Y0068531D01*
X0170879Y0070129D02*
X0174161Y0070129D01*
X0173562Y0071728D02*
X0171646Y0071728D01*
X0171813Y0073326D02*
X0171963Y0073326D01*
X0176697Y0073118D02*
X0183766Y0073118D01*
X0176697Y0073118D02*
X0162346Y0087469D01*
X0159386Y0084516D02*
X0111063Y0084516D01*
X0111183Y0082918D02*
X0162372Y0082918D01*
X0163970Y0081319D02*
X0111183Y0081319D01*
X0111183Y0079720D02*
X0143922Y0079720D01*
X0142988Y0078122D02*
X0129237Y0078122D01*
X0129178Y0078340D02*
X0128941Y0078751D01*
X0128606Y0079086D01*
X0128196Y0079323D01*
X0127738Y0079446D01*
X0119836Y0079446D01*
X0119836Y0073918D01*
X0129301Y0073918D01*
X0129301Y0077883D01*
X0129178Y0078340D01*
X0129301Y0076523D02*
X0134554Y0076523D01*
X0133347Y0074925D02*
X0129301Y0074925D01*
X0129301Y0071728D02*
X0133174Y0071728D01*
X0132958Y0073326D02*
X0119836Y0073326D01*
X0119836Y0071728D02*
X0118236Y0071728D01*
X0118236Y0070129D02*
X0119836Y0070129D01*
X0119836Y0068531D02*
X0118236Y0068531D01*
X0118236Y0066932D02*
X0119836Y0066932D01*
X0119836Y0074925D02*
X0118236Y0074925D01*
X0118236Y0076523D02*
X0119836Y0076523D01*
X0119836Y0078122D02*
X0118236Y0078122D01*
X0111183Y0086115D02*
X0158165Y0086115D01*
X0158165Y0087713D02*
X0111183Y0087713D01*
X0111183Y0089312D02*
X0158277Y0089312D01*
X0159875Y0090910D02*
X0111183Y0090910D01*
X0112596Y0092509D02*
X0182889Y0092509D01*
X0184488Y0090910D02*
X0164818Y0090910D01*
X0165569Y0079720D02*
X0150417Y0079720D01*
X0151350Y0078122D02*
X0167167Y0078122D01*
X0163247Y0076523D02*
X0151350Y0076523D01*
X0150952Y0074925D02*
X0162235Y0074925D01*
X0161895Y0073326D02*
X0152874Y0073326D01*
X0154472Y0071728D02*
X0162063Y0071728D01*
X0162830Y0070129D02*
X0155287Y0070129D01*
X0155287Y0068531D02*
X0164970Y0068531D01*
X0174620Y0079720D02*
X0175299Y0079720D01*
X0195398Y0063735D02*
X0150186Y0063735D01*
X0148588Y0062137D02*
X0195398Y0062137D01*
X0195398Y0060538D02*
X0146989Y0060538D01*
X0145391Y0058940D02*
X0195398Y0058940D01*
X0195398Y0057341D02*
X0143792Y0057341D01*
X0142194Y0055743D02*
X0195398Y0055743D01*
X0195398Y0054144D02*
X0140595Y0054144D01*
X0138996Y0052546D02*
X0195398Y0052546D01*
X0195398Y0050947D02*
X0137398Y0050947D01*
X0135799Y0049349D02*
X0195398Y0049349D01*
X0195398Y0047750D02*
X0134201Y0047750D01*
X0132602Y0046152D02*
X0195398Y0046152D01*
X0195398Y0044553D02*
X0131004Y0044553D01*
X0129405Y0042955D02*
X0195398Y0042955D01*
X0195398Y0041356D02*
X0192191Y0041356D01*
X0193278Y0039758D02*
X0195398Y0039758D01*
X0195398Y0038159D02*
X0193708Y0038159D01*
X0193671Y0036561D02*
X0195398Y0036561D01*
X0195398Y0034962D02*
X0193008Y0034962D01*
X0191540Y0033364D02*
X0195398Y0033364D01*
X0195398Y0031765D02*
X0132024Y0031765D01*
X0131421Y0027843D02*
X0149138Y0027843D01*
X0158980Y0018000D01*
X0154006Y0018449D02*
X0154006Y0014948D01*
X0154371Y0014066D01*
X0155046Y0013391D01*
X0155202Y0013326D01*
X0133137Y0013326D01*
X0134239Y0013783D01*
X0135639Y0015182D01*
X0135746Y0015442D01*
X0135958Y0015150D01*
X0136445Y0014663D01*
X0137002Y0014258D01*
X0137616Y0013946D01*
X0138271Y0013733D01*
X0138951Y0013625D01*
X0139295Y0013625D01*
X0139295Y0018000D01*
X0139295Y0022375D01*
X0138951Y0022375D01*
X0138271Y0022267D01*
X0137616Y0022054D01*
X0137002Y0021742D01*
X0136445Y0021337D01*
X0135958Y0020850D01*
X0135746Y0020558D01*
X0135639Y0020818D01*
X0134239Y0022217D01*
X0132411Y0022975D01*
X0130432Y0022975D01*
X0128603Y0022217D01*
X0127484Y0021098D01*
X0126747Y0021835D01*
X0126747Y0027991D01*
X0128708Y0026030D01*
X0129609Y0025130D01*
X0130785Y0024643D01*
X0147812Y0024643D01*
X0154006Y0018449D01*
X0153478Y0018977D02*
X0143570Y0018977D01*
X0143562Y0019024D02*
X0143350Y0019679D01*
X0143037Y0020293D01*
X0142632Y0020850D01*
X0142145Y0021337D01*
X0141588Y0021742D01*
X0140975Y0022054D01*
X0140320Y0022267D01*
X0139640Y0022375D01*
X0139295Y0022375D01*
X0139295Y0018000D01*
X0139295Y0018000D01*
X0139295Y0018000D01*
X0139295Y0013625D01*
X0139640Y0013625D01*
X0140320Y0013733D01*
X0140975Y0013946D01*
X0141588Y0014258D01*
X0142145Y0014663D01*
X0142632Y0015150D01*
X0143037Y0015707D01*
X0143350Y0016321D01*
X0143562Y0016976D01*
X0143670Y0017656D01*
X0143670Y0018000D01*
X0143670Y0018344D01*
X0143562Y0019024D01*
X0143670Y0018000D02*
X0139295Y0018000D01*
X0139295Y0018000D01*
X0143670Y0018000D01*
X0143626Y0017379D02*
X0154006Y0017379D01*
X0154006Y0015780D02*
X0143074Y0015780D01*
X0141437Y0014182D02*
X0154323Y0014182D01*
X0158980Y0010126D02*
X0127484Y0010126D01*
X0123547Y0014063D01*
X0123547Y0018000D01*
X0123547Y0027843D01*
X0117642Y0033748D01*
X0117642Y0037685D01*
X0117642Y0047528D01*
X0147169Y0077055D01*
X0142112Y0076523D02*
X0140099Y0076523D01*
X0134137Y0070129D02*
X0129301Y0070129D01*
X0129301Y0068531D02*
X0134120Y0068531D01*
X0132521Y0066932D02*
X0128229Y0066932D01*
X0130923Y0065334D02*
X0110015Y0065334D01*
X0110794Y0063735D02*
X0129324Y0063735D01*
X0127726Y0062137D02*
X0111183Y0062137D01*
X0111183Y0060538D02*
X0126127Y0060538D01*
X0124529Y0058940D02*
X0111183Y0058940D01*
X0110319Y0057341D02*
X0122930Y0057341D01*
X0121332Y0055743D02*
X0110541Y0055743D01*
X0110583Y0054144D02*
X0119733Y0054144D01*
X0118134Y0052546D02*
X0110583Y0052546D01*
X0109982Y0050947D02*
X0116536Y0050947D01*
X0114937Y0049349D02*
X0102878Y0049349D01*
X0102878Y0050947D02*
X0103648Y0050947D01*
X0103580Y0051015D02*
X0103913Y0050683D01*
X0104305Y0050421D01*
X0104740Y0050241D01*
X0105202Y0050149D01*
X0106631Y0050149D01*
X0106631Y0053733D01*
X0103046Y0053733D01*
X0103046Y0052304D01*
X0103138Y0051842D01*
X0103319Y0051407D01*
X0103580Y0051015D01*
X0103046Y0052546D02*
X0102878Y0052546D01*
X0102878Y0054144D02*
X0103046Y0054144D01*
X0103089Y0055743D02*
X0102878Y0055743D01*
X0102878Y0057341D02*
X0103311Y0057341D01*
X0106815Y0060823D02*
X0106815Y0081583D01*
X0096972Y0081319D02*
X0074596Y0081319D01*
X0072998Y0082918D02*
X0096972Y0082918D01*
X0096972Y0084516D02*
X0071399Y0084516D01*
X0069801Y0086115D02*
X0096972Y0086115D01*
X0096972Y0087713D02*
X0068202Y0087713D01*
X0068102Y0087813D02*
X0068102Y0089200D01*
X0065653Y0091650D01*
X0062189Y0091650D01*
X0059740Y0089200D01*
X0059740Y0085737D01*
X0062189Y0083287D01*
X0063577Y0083287D01*
X0068787Y0078077D01*
X0067443Y0078077D01*
X0065620Y0077322D01*
X0064225Y0075927D01*
X0063470Y0074105D01*
X0063470Y0072132D01*
X0064225Y0070309D01*
X0065620Y0068914D01*
X0067443Y0068159D01*
X0069416Y0068159D01*
X0071238Y0068914D01*
X0072633Y0070309D01*
X0073388Y0072132D01*
X0073388Y0073476D01*
X0075559Y0071305D01*
X0075736Y0071128D01*
X0075736Y0068113D01*
X0076101Y0067231D01*
X0076776Y0066556D01*
X0077658Y0066191D01*
X0093023Y0066191D01*
X0093905Y0066556D01*
X0094580Y0067231D01*
X0094945Y0068113D01*
X0094945Y0078123D01*
X0094580Y0079005D01*
X0093905Y0079680D01*
X0093023Y0080046D01*
X0077658Y0080046D01*
X0076776Y0079680D01*
X0076506Y0079410D01*
X0068102Y0087813D01*
X0067991Y0089312D02*
X0096972Y0089312D01*
X0096972Y0090910D02*
X0090166Y0090910D01*
X0089846Y0090591D02*
X0092295Y0093040D01*
X0092295Y0096504D01*
X0089846Y0098953D01*
X0089024Y0098953D01*
X0088185Y0099792D01*
X0086862Y0100340D01*
X0015624Y0100340D01*
X0015043Y0100921D01*
X0011579Y0100921D01*
X0009130Y0098472D01*
X0009130Y0097650D01*
X0005338Y0093858D01*
X0004790Y0092535D01*
X0004790Y0092204D01*
X0004453Y0091867D01*
X0004453Y0101661D01*
X0096972Y0101661D01*
X0096972Y0009142D01*
X0064096Y0009142D01*
X0067980Y0013025D01*
X0069419Y0013025D01*
X0071247Y0013783D01*
X0072366Y0014902D01*
X0073485Y0013783D01*
X0075314Y0013025D01*
X0077293Y0013025D01*
X0079121Y0013783D01*
X0080521Y0015182D01*
X0080628Y0015442D01*
X0080840Y0015150D01*
X0081327Y0014663D01*
X0081884Y0014258D01*
X0082498Y0013946D01*
X0083153Y0013733D01*
X0083833Y0013625D01*
X0084177Y0013625D01*
X0084177Y0018000D01*
X0084177Y0022375D01*
X0083833Y0022375D01*
X0083153Y0022267D01*
X0082498Y0022054D01*
X0081884Y0021742D01*
X0081327Y0021337D01*
X0080840Y0020850D01*
X0080628Y0020558D01*
X0080521Y0020818D01*
X0079121Y0022217D01*
X0077293Y0022975D01*
X0075314Y0022975D01*
X0073485Y0022217D01*
X0072366Y0021098D01*
X0071247Y0022217D01*
X0069419Y0022975D01*
X0067440Y0022975D01*
X0065611Y0022217D01*
X0065212Y0021819D01*
X0065165Y0021934D01*
X0064489Y0022609D01*
X0063607Y0022975D01*
X0060106Y0022975D01*
X0052525Y0030555D01*
X0051349Y0031043D01*
X0034322Y0031043D01*
X0032136Y0033228D01*
X0033930Y0032485D01*
X0035999Y0032485D01*
X0037910Y0033277D01*
X0039326Y0034693D01*
X0039330Y0034688D01*
X0039842Y0034176D01*
X0040428Y0033751D01*
X0041073Y0033422D01*
X0041761Y0033198D01*
X0042477Y0033085D01*
X0042839Y0033085D01*
X0043201Y0033085D01*
X0043916Y0033198D01*
X0044604Y0033422D01*
X0045249Y0033751D01*
X0045835Y0034176D01*
X0046347Y0034688D01*
X0046351Y0034693D01*
X0047767Y0033277D01*
X0049678Y0032485D01*
X0051747Y0032485D01*
X0053658Y0033277D01*
X0054650Y0034268D01*
X0055641Y0033277D01*
X0057552Y0032485D01*
X0059621Y0032485D01*
X0061532Y0033277D01*
X0062524Y0034268D01*
X0063515Y0033277D01*
X0065426Y0032485D01*
X0067495Y0032485D01*
X0069406Y0033277D01*
X0070398Y0034268D01*
X0071389Y0033277D01*
X0073300Y0032485D01*
X0075369Y0032485D01*
X0077280Y0033277D01*
X0078272Y0034268D01*
X0079263Y0033277D01*
X0081174Y0032485D01*
X0083243Y0032485D01*
X0085154Y0033277D01*
X0086146Y0034268D01*
X0087137Y0033277D01*
X0089048Y0032485D01*
X0091117Y0032485D01*
X0093028Y0033277D01*
X0094491Y0034739D01*
X0095283Y0036651D01*
X0095283Y0038719D01*
X0094491Y0040631D01*
X0093028Y0042093D01*
X0091117Y0042885D01*
X0089048Y0042885D01*
X0087137Y0042093D01*
X0086146Y0041102D01*
X0085154Y0042093D01*
X0083243Y0042885D01*
X0081174Y0042885D01*
X0079263Y0042093D01*
X0078272Y0041102D01*
X0077280Y0042093D01*
X0075369Y0042885D01*
X0073300Y0042885D01*
X0071389Y0042093D01*
X0070398Y0041102D01*
X0069406Y0042093D01*
X0067495Y0042885D01*
X0065426Y0042885D01*
X0063515Y0042093D01*
X0062524Y0041102D01*
X0061532Y0042093D01*
X0059621Y0042885D01*
X0057552Y0042885D01*
X0055641Y0042093D01*
X0054650Y0041102D01*
X0053658Y0042093D01*
X0051747Y0042885D01*
X0049678Y0042885D01*
X0047767Y0042093D01*
X0046351Y0040677D01*
X0046347Y0040682D01*
X0045835Y0041194D01*
X0045249Y0041619D01*
X0044604Y0041948D01*
X0043916Y0042172D01*
X0043201Y0042285D01*
X0042839Y0042285D01*
X0042839Y0037685D01*
X0042839Y0033085D01*
X0042839Y0037685D01*
X0042839Y0037685D01*
X0042839Y0037685D01*
X0042839Y0042285D01*
X0042477Y0042285D01*
X0041761Y0042172D01*
X0041073Y0041948D01*
X0040428Y0041619D01*
X0039842Y0041194D01*
X0039330Y0040682D01*
X0039326Y0040677D01*
X0037910Y0042093D01*
X0035999Y0042885D01*
X0033930Y0042885D01*
X0032019Y0042093D01*
X0031028Y0041102D01*
X0030291Y0041839D01*
X0030291Y0042265D01*
X0053025Y0065000D01*
X0054413Y0065000D01*
X0056862Y0067449D01*
X0056862Y0070913D01*
X0054413Y0073362D01*
X0050964Y0073362D01*
X0052925Y0075323D01*
X0052925Y0078787D01*
X0050476Y0081236D01*
X0047012Y0081236D01*
X0044563Y0078787D01*
X0044563Y0077399D01*
X0042649Y0075486D01*
X0042605Y0075593D01*
X0041376Y0076822D01*
X0039771Y0077487D01*
X0038033Y0077487D01*
X0036427Y0076822D01*
X0035198Y0075593D01*
X0034533Y0073987D01*
X0034533Y0072249D01*
X0035198Y0070644D01*
X0036427Y0069415D01*
X0036534Y0069370D01*
X0017404Y0050240D01*
X0016504Y0049340D01*
X0016017Y0048164D01*
X0016017Y0041839D01*
X0015280Y0041102D01*
X0014288Y0042093D01*
X0012377Y0042885D01*
X0010308Y0042885D01*
X0008397Y0042093D01*
X0006934Y0040631D01*
X0006143Y0038719D01*
X0006143Y0036651D01*
X0006934Y0034739D01*
X0008397Y0033277D01*
X0010308Y0032485D01*
X0012377Y0032485D01*
X0014288Y0033277D01*
X0015280Y0034268D01*
X0016017Y0033531D01*
X0016017Y0033112D01*
X0016504Y0031935D01*
X0021922Y0026517D01*
X0021922Y0021835D01*
X0021905Y0021819D01*
X0021857Y0021934D01*
X0021182Y0022609D01*
X0020300Y0022975D01*
X0014196Y0022975D01*
X0013314Y0022609D01*
X0012639Y0021934D01*
X0012273Y0021052D01*
X0012273Y0014948D01*
X0012639Y0014066D01*
X0013314Y0013391D01*
X0014196Y0013025D01*
X0020300Y0013025D01*
X0021182Y0013391D01*
X0021857Y0014066D01*
X0021905Y0014181D01*
X0021922Y0014165D01*
X0021922Y0013426D01*
X0022409Y0012250D01*
X0023309Y0011350D01*
X0025518Y0009142D01*
X0004453Y0009142D01*
X0004453Y0057808D01*
X0004477Y0057751D01*
X0005282Y0056946D01*
X0005155Y0056819D01*
X0004893Y0056428D01*
X0004713Y0055993D01*
X0004621Y0055531D01*
X0004621Y0054102D01*
X0008205Y0054102D01*
X0008205Y0053733D01*
X0004621Y0053733D01*
X0004621Y0052304D01*
X0004713Y0051842D01*
X0004893Y0051407D01*
X0005155Y0051015D01*
X0005488Y0050683D01*
X0005879Y0050421D01*
X0006315Y0050241D01*
X0006776Y0050149D01*
X0008205Y0050149D01*
X0008205Y0053733D01*
X0008574Y0053733D01*
X0008574Y0050149D01*
X0010003Y0050149D01*
X0010465Y0050241D01*
X0010900Y0050421D01*
X0011292Y0050683D01*
X0011625Y0051015D01*
X0011886Y0051407D01*
X0012066Y0051842D01*
X0012158Y0052304D01*
X0012158Y0053733D01*
X0008574Y0053733D01*
X0008574Y0054102D01*
X0012158Y0054102D01*
X0012158Y0055531D01*
X0012066Y0055993D01*
X0011886Y0056428D01*
X0011625Y0056819D01*
X0011498Y0056946D01*
X0012303Y0057751D01*
X0012758Y0058850D01*
X0012758Y0062796D01*
X0012303Y0063895D01*
X0011590Y0064608D01*
X0011590Y0066876D01*
X0011909Y0066791D01*
X0019811Y0066791D01*
X0019811Y0072318D01*
X0021411Y0072318D01*
X0021411Y0066791D01*
X0029313Y0066791D01*
X0029770Y0066913D01*
X0030181Y0067150D01*
X0030516Y0067485D01*
X0030753Y0067896D01*
X0030876Y0068354D01*
X0030876Y0072318D01*
X0021411Y0072318D01*
X0021411Y0073918D01*
X0030876Y0073918D01*
X0030876Y0077883D01*
X0030753Y0078340D01*
X0030516Y0078751D01*
X0030181Y0079086D01*
X0029770Y0079323D01*
X0029313Y0079446D01*
X0021411Y0079446D01*
X0021411Y0073918D01*
X0019811Y0073918D01*
X0019811Y0079446D01*
X0012758Y0079446D01*
X0012758Y0084225D01*
X0012467Y0084929D01*
X0012758Y0085633D01*
X0012758Y0090918D01*
X0012706Y0091044D01*
X0014221Y0092559D01*
X0015043Y0092559D01*
X0015624Y0093140D01*
X0083933Y0093140D01*
X0083933Y0093040D01*
X0086382Y0090591D01*
X0089846Y0090591D01*
X0091764Y0092509D02*
X0096972Y0092509D01*
X0096972Y0094107D02*
X0092295Y0094107D01*
X0092295Y0095706D02*
X0096972Y0095706D01*
X0096972Y0097304D02*
X0091495Y0097304D01*
X0089896Y0098903D02*
X0096972Y0098903D01*
X0096972Y0100501D02*
X0015463Y0100501D01*
X0011159Y0100501D02*
X0004453Y0100501D01*
X0004453Y0098903D02*
X0009561Y0098903D01*
X0008784Y0097304D02*
X0004453Y0097304D01*
X0004453Y0095706D02*
X0007185Y0095706D01*
X0005587Y0094107D02*
X0004453Y0094107D01*
X0004453Y0092509D02*
X0004790Y0092509D01*
X0012758Y0090910D02*
X0061450Y0090910D01*
X0059851Y0089312D02*
X0012758Y0089312D01*
X0012758Y0087713D02*
X0059740Y0087713D01*
X0059740Y0086115D02*
X0012758Y0086115D01*
X0012638Y0084516D02*
X0060961Y0084516D01*
X0063947Y0082918D02*
X0012758Y0082918D01*
X0012758Y0081319D02*
X0065545Y0081319D01*
X0067144Y0079720D02*
X0051992Y0079720D01*
X0052925Y0078122D02*
X0068742Y0078122D01*
X0064821Y0076523D02*
X0052925Y0076523D01*
X0052527Y0074925D02*
X0063810Y0074925D01*
X0063470Y0073326D02*
X0054449Y0073326D01*
X0056047Y0071728D02*
X0063637Y0071728D01*
X0064405Y0070129D02*
X0056862Y0070129D01*
X0056862Y0068531D02*
X0066545Y0068531D01*
X0070313Y0068531D02*
X0075736Y0068531D01*
X0075736Y0070129D02*
X0072454Y0070129D01*
X0073221Y0071728D02*
X0075136Y0071728D01*
X0073538Y0073326D02*
X0073388Y0073326D01*
X0078272Y0073118D02*
X0085341Y0073118D01*
X0078272Y0073118D02*
X0063921Y0087469D01*
X0066393Y0090910D02*
X0086063Y0090910D01*
X0084464Y0092509D02*
X0014171Y0092509D01*
X0008390Y0081583D02*
X0008390Y0060823D01*
X0011893Y0057341D02*
X0024505Y0057341D01*
X0022906Y0055743D02*
X0012116Y0055743D01*
X0012158Y0054144D02*
X0021308Y0054144D01*
X0019709Y0052546D02*
X0012158Y0052546D01*
X0011556Y0050947D02*
X0018111Y0050947D01*
X0017404Y0050240D02*
X0017404Y0050240D01*
X0016512Y0049349D02*
X0004453Y0049349D01*
X0004453Y0050947D02*
X0005223Y0050947D01*
X0004621Y0052546D02*
X0004453Y0052546D01*
X0004453Y0054144D02*
X0004621Y0054144D01*
X0004663Y0055743D02*
X0004453Y0055743D01*
X0004453Y0057341D02*
X0004886Y0057341D01*
X0008205Y0052546D02*
X0008574Y0052546D01*
X0008574Y0050947D02*
X0008205Y0050947D01*
X0004453Y0047750D02*
X0016017Y0047750D01*
X0016017Y0046152D02*
X0004453Y0046152D01*
X0004453Y0044553D02*
X0016017Y0044553D01*
X0016017Y0042955D02*
X0004453Y0042955D01*
X0004453Y0041356D02*
X0007660Y0041356D01*
X0006573Y0039758D02*
X0004453Y0039758D01*
X0004453Y0038159D02*
X0006143Y0038159D01*
X0006180Y0036561D02*
X0004453Y0036561D01*
X0004453Y0034962D02*
X0006842Y0034962D01*
X0008310Y0033364D02*
X0004453Y0033364D01*
X0004453Y0031765D02*
X0016674Y0031765D01*
X0016017Y0033364D02*
X0014375Y0033364D01*
X0019217Y0033748D02*
X0019217Y0037685D01*
X0019217Y0047528D01*
X0048744Y0077055D01*
X0045497Y0079720D02*
X0012758Y0079720D01*
X0019811Y0078122D02*
X0021411Y0078122D01*
X0021411Y0076523D02*
X0019811Y0076523D01*
X0019811Y0074925D02*
X0021411Y0074925D01*
X0021411Y0073326D02*
X0034533Y0073326D01*
X0034749Y0071728D02*
X0030876Y0071728D01*
X0030876Y0070129D02*
X0035712Y0070129D01*
X0035694Y0068531D02*
X0030876Y0068531D01*
X0029804Y0066932D02*
X0034096Y0066932D01*
X0032497Y0065334D02*
X0011590Y0065334D01*
X0012369Y0063735D02*
X0030899Y0063735D01*
X0029300Y0062137D02*
X0012758Y0062137D01*
X0012758Y0060538D02*
X0027702Y0060538D01*
X0026103Y0058940D02*
X0012758Y0058940D01*
X0019811Y0066932D02*
X0021411Y0066932D01*
X0021411Y0068531D02*
X0019811Y0068531D01*
X0019811Y0070129D02*
X0021411Y0070129D01*
X0021411Y0071728D02*
X0019811Y0071728D01*
X0030876Y0074925D02*
X0034922Y0074925D01*
X0036129Y0076523D02*
X0030876Y0076523D01*
X0030811Y0078122D02*
X0044563Y0078122D01*
X0043687Y0076523D02*
X0041674Y0076523D01*
X0052681Y0069181D02*
X0027091Y0043591D01*
X0027091Y0037685D01*
X0027091Y0033748D01*
X0032996Y0027843D01*
X0050713Y0027843D01*
X0060555Y0018000D01*
X0056777Y0013326D02*
X0034712Y0013326D01*
X0035814Y0013783D01*
X0037213Y0015182D01*
X0037321Y0015442D01*
X0037533Y0015150D01*
X0038020Y0014663D01*
X0038577Y0014258D01*
X0039191Y0013946D01*
X0039846Y0013733D01*
X0040526Y0013625D01*
X0040870Y0013625D01*
X0040870Y0018000D01*
X0040870Y0022375D01*
X0040526Y0022375D01*
X0039846Y0022267D01*
X0039191Y0022054D01*
X0038577Y0021742D01*
X0038020Y0021337D01*
X0037533Y0020850D01*
X0037321Y0020558D01*
X0037213Y0020818D01*
X0035814Y0022217D01*
X0033986Y0022975D01*
X0032007Y0022975D01*
X0030178Y0022217D01*
X0029059Y0021098D01*
X0028322Y0021835D01*
X0028322Y0027991D01*
X0030283Y0026030D01*
X0031183Y0025130D01*
X0032360Y0024643D01*
X0049387Y0024643D01*
X0055580Y0018449D01*
X0055580Y0014948D01*
X0055946Y0014066D01*
X0056621Y0013391D01*
X0056777Y0013326D01*
X0055898Y0014182D02*
X0043012Y0014182D01*
X0043163Y0014258D02*
X0043720Y0014663D01*
X0044207Y0015150D01*
X0044612Y0015707D01*
X0044924Y0016321D01*
X0045137Y0016976D01*
X0045245Y0017656D01*
X0045245Y0018000D01*
X0045245Y0018344D01*
X0045137Y0019024D01*
X0044924Y0019679D01*
X0044612Y0020293D01*
X0044207Y0020850D01*
X0043720Y0021337D01*
X0043163Y0021742D01*
X0042549Y0022054D01*
X0041895Y0022267D01*
X0041214Y0022375D01*
X0040870Y0022375D01*
X0040870Y0018000D01*
X0040870Y0018000D01*
X0040870Y0018000D01*
X0040870Y0013625D01*
X0041214Y0013625D01*
X0041895Y0013733D01*
X0042549Y0013946D01*
X0043163Y0014258D01*
X0044649Y0015780D02*
X0055580Y0015780D01*
X0055580Y0017379D02*
X0045201Y0017379D01*
X0045245Y0018000D02*
X0040870Y0018000D01*
X0045245Y0018000D01*
X0045145Y0018977D02*
X0055053Y0018977D01*
X0053454Y0020576D02*
X0044406Y0020576D01*
X0042181Y0022174D02*
X0051856Y0022174D01*
X0050257Y0023773D02*
X0028322Y0023773D01*
X0028322Y0025371D02*
X0030942Y0025371D01*
X0029343Y0026970D02*
X0028322Y0026970D01*
X0025122Y0027843D02*
X0019217Y0033748D01*
X0018272Y0030167D02*
X0004453Y0030167D01*
X0004453Y0028568D02*
X0019871Y0028568D01*
X0021469Y0026970D02*
X0004453Y0026970D01*
X0004453Y0025371D02*
X0021922Y0025371D01*
X0021922Y0023773D02*
X0004453Y0023773D01*
X0004453Y0022174D02*
X0012878Y0022174D01*
X0012273Y0020576D02*
X0004453Y0020576D01*
X0004453Y0018977D02*
X0012273Y0018977D01*
X0012273Y0017379D02*
X0004453Y0017379D01*
X0004453Y0015780D02*
X0012273Y0015780D01*
X0012591Y0014182D02*
X0004453Y0014182D01*
X0004453Y0012583D02*
X0022271Y0012583D01*
X0023675Y0010985D02*
X0004453Y0010985D01*
X0004453Y0009386D02*
X0025274Y0009386D01*
X0029059Y0010126D02*
X0025122Y0014063D01*
X0025122Y0018000D01*
X0025122Y0027843D01*
X0021922Y0022174D02*
X0021618Y0022174D01*
X0028322Y0022174D02*
X0030135Y0022174D01*
X0035857Y0022174D02*
X0039559Y0022174D01*
X0040870Y0022174D02*
X0040870Y0022174D01*
X0040870Y0020576D02*
X0040870Y0020576D01*
X0040870Y0018977D02*
X0040870Y0018977D01*
X0040870Y0018000D02*
X0040870Y0018000D01*
X0040870Y0017379D02*
X0040870Y0017379D01*
X0040870Y0015780D02*
X0040870Y0015780D01*
X0040870Y0014182D02*
X0040870Y0014182D01*
X0038728Y0014182D02*
X0036213Y0014182D01*
X0037314Y0020576D02*
X0037334Y0020576D01*
X0033599Y0031765D02*
X0096972Y0031765D01*
X0096972Y0030167D02*
X0052914Y0030167D01*
X0054512Y0028568D02*
X0096972Y0028568D01*
X0096972Y0026970D02*
X0056111Y0026970D01*
X0057709Y0025371D02*
X0096972Y0025371D01*
X0096972Y0023773D02*
X0059308Y0023773D01*
X0064925Y0022174D02*
X0065568Y0022174D01*
X0068429Y0018000D02*
X0060555Y0010126D01*
X0029059Y0010126D01*
X0037997Y0033364D02*
X0041252Y0033364D01*
X0042839Y0033364D02*
X0042839Y0033364D01*
X0044425Y0033364D02*
X0047680Y0033364D01*
X0042839Y0034962D02*
X0042839Y0034962D01*
X0042839Y0036561D02*
X0042839Y0036561D01*
X0042839Y0038159D02*
X0042839Y0038159D01*
X0042839Y0039758D02*
X0042839Y0039758D01*
X0042839Y0041356D02*
X0042839Y0041356D01*
X0045612Y0041356D02*
X0047030Y0041356D01*
X0040066Y0041356D02*
X0038647Y0041356D01*
X0034177Y0046152D02*
X0096972Y0046152D01*
X0096972Y0047750D02*
X0035776Y0047750D01*
X0037374Y0049349D02*
X0096972Y0049349D01*
X0096972Y0050947D02*
X0038973Y0050947D01*
X0040571Y0052546D02*
X0096972Y0052546D01*
X0096972Y0054144D02*
X0042170Y0054144D01*
X0043768Y0055743D02*
X0096972Y0055743D01*
X0096972Y0057341D02*
X0045367Y0057341D01*
X0046965Y0058940D02*
X0096972Y0058940D01*
X0096972Y0060538D02*
X0048564Y0060538D01*
X0050162Y0062137D02*
X0096972Y0062137D01*
X0096972Y0063735D02*
X0051761Y0063735D01*
X0054747Y0065334D02*
X0096972Y0065334D01*
X0096972Y0066932D02*
X0094281Y0066932D01*
X0094945Y0068531D02*
X0096972Y0068531D01*
X0096972Y0070129D02*
X0094945Y0070129D01*
X0094945Y0071728D02*
X0096972Y0071728D01*
X0096972Y0073326D02*
X0094945Y0073326D01*
X0094945Y0074925D02*
X0096972Y0074925D01*
X0096972Y0076523D02*
X0094945Y0076523D01*
X0094945Y0078122D02*
X0096972Y0078122D01*
X0096972Y0079720D02*
X0093808Y0079720D01*
X0102878Y0092509D02*
X0103215Y0092509D01*
X0102878Y0094107D02*
X0104012Y0094107D01*
X0102878Y0095706D02*
X0105611Y0095706D01*
X0107209Y0097304D02*
X0102878Y0097304D01*
X0102878Y0098903D02*
X0107986Y0098903D01*
X0109584Y0100501D02*
X0102878Y0100501D01*
X0096972Y0108494D02*
X0065023Y0108494D01*
X0066622Y0110092D02*
X0096972Y0110092D01*
X0075028Y0121282D02*
X0069704Y0121282D01*
X0067154Y0121282D02*
X0063893Y0121282D01*
X0072206Y0119683D02*
X0072526Y0119683D01*
X0071334Y0140464D02*
X0069461Y0140464D01*
X0063460Y0140464D02*
X0061587Y0140464D01*
X0055586Y0140464D02*
X0053713Y0140464D01*
X0047712Y0140464D02*
X0044325Y0140464D01*
X0042839Y0140464D02*
X0042839Y0140464D01*
X0041352Y0140464D02*
X0037965Y0140464D01*
X0042839Y0138865D02*
X0042839Y0138865D01*
X0042839Y0137267D02*
X0042839Y0137267D01*
X0042839Y0135668D02*
X0042839Y0135668D01*
X0042839Y0134070D02*
X0042839Y0134070D01*
X0042839Y0132471D02*
X0042839Y0132471D01*
X0045656Y0132471D02*
X0046998Y0132471D01*
X0040021Y0132471D02*
X0038680Y0132471D01*
X0021922Y0124479D02*
X0004453Y0124479D01*
X0004453Y0126077D02*
X0020787Y0126077D01*
X0019188Y0127676D02*
X0004453Y0127676D01*
X0004453Y0129274D02*
X0017590Y0129274D01*
X0016291Y0130873D02*
X0004453Y0130873D01*
X0004453Y0132471D02*
X0007627Y0132471D01*
X0006559Y0134070D02*
X0004453Y0134070D01*
X0004453Y0135668D02*
X0006143Y0135668D01*
X0006193Y0137267D02*
X0004453Y0137267D01*
X0004453Y0138865D02*
X0006855Y0138865D01*
X0008342Y0140464D02*
X0004453Y0140464D01*
X0004453Y0142062D02*
X0016017Y0142062D01*
X0016017Y0140464D02*
X0014343Y0140464D01*
X0016017Y0143661D02*
X0004453Y0143661D01*
X0004453Y0145259D02*
X0016017Y0145259D01*
X0016128Y0146858D02*
X0004453Y0146858D01*
X0004453Y0148456D02*
X0017195Y0148456D01*
X0018793Y0150055D02*
X0011978Y0150055D01*
X0012158Y0151654D02*
X0020392Y0151654D01*
X0021990Y0153252D02*
X0012158Y0153252D01*
X0011887Y0154851D02*
X0023589Y0154851D01*
X0025187Y0156449D02*
X0012416Y0156449D01*
X0012758Y0158048D02*
X0026786Y0158048D01*
X0028384Y0159646D02*
X0012758Y0159646D01*
X0012748Y0161245D02*
X0029983Y0161245D01*
X0031581Y0162843D02*
X0011780Y0162843D01*
X0011590Y0164442D02*
X0033180Y0164442D01*
X0034778Y0166040D02*
X0030591Y0166040D01*
X0030876Y0167639D02*
X0036377Y0167639D01*
X0035128Y0169237D02*
X0030876Y0169237D01*
X0030876Y0172434D02*
X0034542Y0172434D01*
X0034533Y0170836D02*
X0021411Y0170836D01*
X0021411Y0172434D02*
X0019811Y0172434D01*
X0019811Y0174033D02*
X0021411Y0174033D01*
X0021411Y0175631D02*
X0019811Y0175631D01*
X0019811Y0177230D02*
X0021411Y0177230D01*
X0021411Y0169237D02*
X0019811Y0169237D01*
X0019811Y0167639D02*
X0021411Y0167639D01*
X0021411Y0166040D02*
X0019811Y0166040D01*
X0008390Y0159248D02*
X0008390Y0180008D01*
X0012758Y0178828D02*
X0046179Y0178828D01*
X0044581Y0177230D02*
X0030462Y0177230D01*
X0030876Y0175631D02*
X0037355Y0175631D01*
X0035213Y0174033D02*
X0030876Y0174033D01*
X0040448Y0175631D02*
X0044369Y0175631D01*
X0042771Y0174033D02*
X0042590Y0174033D01*
X0008574Y0151654D02*
X0008205Y0151654D01*
X0008205Y0150055D02*
X0008574Y0150055D01*
X0004801Y0150055D02*
X0004453Y0150055D01*
X0004453Y0151654D02*
X0004621Y0151654D01*
X0004621Y0153252D02*
X0004453Y0153252D01*
X0004453Y0154851D02*
X0004892Y0154851D01*
X0015058Y0132471D02*
X0015501Y0132471D01*
X0021922Y0122880D02*
X0004453Y0122880D01*
X0004453Y0121282D02*
X0013910Y0121282D01*
X0012359Y0119683D02*
X0004453Y0119683D01*
X0004453Y0118085D02*
X0012273Y0118085D01*
X0012273Y0116486D02*
X0004453Y0116486D01*
X0004453Y0114888D02*
X0012273Y0114888D01*
X0012308Y0113289D02*
X0004453Y0113289D01*
X0004453Y0111691D02*
X0013616Y0111691D01*
X0020880Y0111691D02*
X0021989Y0111691D01*
X0022993Y0110092D02*
X0004453Y0110092D01*
X0004453Y0108494D02*
X0024591Y0108494D01*
X0021922Y0121282D02*
X0020586Y0121282D01*
X0056345Y0066932D02*
X0076400Y0066932D01*
X0076195Y0079720D02*
X0076873Y0079720D01*
X0106631Y0052546D02*
X0106999Y0052546D01*
X0106999Y0050947D02*
X0106631Y0050947D01*
X0102878Y0047750D02*
X0114442Y0047750D01*
X0114442Y0046152D02*
X0102878Y0046152D01*
X0102878Y0044553D02*
X0114442Y0044553D01*
X0114442Y0042955D02*
X0102878Y0042955D01*
X0102878Y0041356D02*
X0106085Y0041356D01*
X0104998Y0039758D02*
X0102878Y0039758D01*
X0102878Y0038159D02*
X0104568Y0038159D01*
X0104605Y0036561D02*
X0102878Y0036561D01*
X0102878Y0034962D02*
X0105267Y0034962D01*
X0106735Y0033364D02*
X0102878Y0033364D01*
X0102878Y0031765D02*
X0115099Y0031765D01*
X0114442Y0033364D02*
X0112800Y0033364D01*
X0116698Y0030167D02*
X0102878Y0030167D01*
X0102878Y0028568D02*
X0118296Y0028568D01*
X0119895Y0026970D02*
X0102878Y0026970D01*
X0102878Y0025371D02*
X0120347Y0025371D01*
X0120347Y0023773D02*
X0102878Y0023773D01*
X0102878Y0022174D02*
X0111304Y0022174D01*
X0110698Y0020576D02*
X0102878Y0020576D01*
X0102878Y0018977D02*
X0110698Y0018977D01*
X0110698Y0017379D02*
X0102878Y0017379D01*
X0102878Y0015780D02*
X0110698Y0015780D01*
X0111016Y0014182D02*
X0102878Y0014182D01*
X0102878Y0012583D02*
X0120697Y0012583D01*
X0122100Y0010985D02*
X0102878Y0010985D01*
X0102878Y0009386D02*
X0123699Y0009386D01*
X0134638Y0014182D02*
X0137153Y0014182D01*
X0139295Y0014182D02*
X0139295Y0014182D01*
X0139295Y0015780D02*
X0139295Y0015780D01*
X0139295Y0017379D02*
X0139295Y0017379D01*
X0139295Y0018977D02*
X0139295Y0018977D01*
X0139295Y0020576D02*
X0139295Y0020576D01*
X0139295Y0022174D02*
X0139295Y0022174D01*
X0137985Y0022174D02*
X0134283Y0022174D01*
X0135739Y0020576D02*
X0135759Y0020576D01*
X0140606Y0022174D02*
X0150281Y0022174D01*
X0151879Y0020576D02*
X0142832Y0020576D01*
X0148682Y0023773D02*
X0126747Y0023773D01*
X0126747Y0025371D02*
X0129367Y0025371D01*
X0127769Y0026970D02*
X0126747Y0026970D01*
X0131421Y0027843D02*
X0125516Y0033748D01*
X0125516Y0037685D01*
X0125516Y0043591D01*
X0151106Y0069181D01*
X0152821Y0041356D02*
X0153329Y0041356D01*
X0160695Y0041356D02*
X0161203Y0041356D01*
X0168569Y0041356D02*
X0169077Y0041356D01*
X0176443Y0041356D02*
X0176951Y0041356D01*
X0184317Y0041356D02*
X0184825Y0041356D01*
X0185475Y0033364D02*
X0183666Y0033364D01*
X0177601Y0033364D02*
X0175792Y0033364D01*
X0169727Y0033364D02*
X0167918Y0033364D01*
X0161853Y0033364D02*
X0160044Y0033364D01*
X0153979Y0033364D02*
X0152170Y0033364D01*
X0151339Y0030167D02*
X0195398Y0030167D01*
X0195398Y0028568D02*
X0152938Y0028568D01*
X0154536Y0026970D02*
X0195398Y0026970D01*
X0195398Y0025371D02*
X0156135Y0025371D01*
X0157733Y0023773D02*
X0195398Y0023773D01*
X0195398Y0022174D02*
X0183913Y0022174D01*
X0183627Y0022267D02*
X0184282Y0022054D01*
X0184895Y0021742D01*
X0185452Y0021337D01*
X0185939Y0020850D01*
X0186344Y0020293D01*
X0186657Y0019679D01*
X0186869Y0019024D01*
X0186977Y0018344D01*
X0186977Y0018000D01*
X0182602Y0018000D01*
X0182602Y0018000D01*
X0182602Y0018000D01*
X0182602Y0022375D01*
X0182947Y0022375D01*
X0183627Y0022267D01*
X0182602Y0022174D02*
X0182602Y0022174D01*
X0181292Y0022174D02*
X0177590Y0022174D01*
X0179046Y0020576D02*
X0179066Y0020576D01*
X0182602Y0020576D02*
X0182602Y0020576D01*
X0182602Y0018977D02*
X0182602Y0018977D01*
X0182602Y0018000D02*
X0182602Y0018000D01*
X0182602Y0013625D01*
X0182947Y0013625D01*
X0183627Y0013733D01*
X0184282Y0013946D01*
X0184895Y0014258D01*
X0185452Y0014663D01*
X0185939Y0015150D01*
X0186344Y0015707D01*
X0186657Y0016321D01*
X0186869Y0016976D01*
X0186977Y0017656D01*
X0186977Y0018000D01*
X0182602Y0018000D01*
X0182602Y0017379D02*
X0182602Y0017379D01*
X0182602Y0015780D02*
X0182602Y0015780D01*
X0182602Y0014182D02*
X0182602Y0014182D01*
X0180460Y0014182D02*
X0177945Y0014182D01*
X0184745Y0014182D02*
X0195398Y0014182D01*
X0195398Y0015780D02*
X0186381Y0015780D01*
X0186933Y0017379D02*
X0195398Y0017379D01*
X0195398Y0018977D02*
X0186877Y0018977D01*
X0186139Y0020576D02*
X0195398Y0020576D01*
X0195398Y0012583D02*
X0165963Y0012583D01*
X0164364Y0010985D02*
X0195398Y0010985D01*
X0195398Y0009386D02*
X0162766Y0009386D01*
X0158980Y0010126D02*
X0166854Y0018000D01*
X0170071Y0014182D02*
X0171511Y0014182D01*
X0171867Y0022174D02*
X0169716Y0022174D01*
X0163993Y0022174D02*
X0163350Y0022174D01*
X0146105Y0033364D02*
X0142850Y0033364D01*
X0141264Y0033364D02*
X0141264Y0033364D01*
X0139678Y0033364D02*
X0136422Y0033364D01*
X0141264Y0034962D02*
X0141264Y0034962D01*
X0141264Y0036561D02*
X0141264Y0036561D01*
X0141264Y0038159D02*
X0141264Y0038159D01*
X0141264Y0039758D02*
X0141264Y0039758D01*
X0141264Y0041356D02*
X0141264Y0041356D01*
X0138491Y0041356D02*
X0137072Y0041356D01*
X0144037Y0041356D02*
X0145455Y0041356D01*
X0129707Y0041356D02*
X0129198Y0041356D01*
X0113959Y0041356D02*
X0113450Y0041356D01*
X0096972Y0041356D02*
X0093765Y0041356D01*
X0094853Y0039758D02*
X0096972Y0039758D01*
X0096972Y0038159D02*
X0095283Y0038159D01*
X0095245Y0036561D02*
X0096972Y0036561D01*
X0096972Y0034962D02*
X0094583Y0034962D01*
X0093115Y0033364D02*
X0096972Y0033364D01*
X0096972Y0042955D02*
X0030980Y0042955D01*
X0030773Y0041356D02*
X0031282Y0041356D01*
X0032579Y0044553D02*
X0096972Y0044553D01*
X0086400Y0041356D02*
X0085891Y0041356D01*
X0078526Y0041356D02*
X0078017Y0041356D01*
X0070652Y0041356D02*
X0070143Y0041356D01*
X0062778Y0041356D02*
X0062269Y0041356D01*
X0054904Y0041356D02*
X0054395Y0041356D01*
X0053745Y0033364D02*
X0055554Y0033364D01*
X0061619Y0033364D02*
X0063428Y0033364D01*
X0069493Y0033364D02*
X0071302Y0033364D01*
X0077367Y0033364D02*
X0079176Y0033364D01*
X0085241Y0033364D02*
X0087050Y0033364D01*
X0085202Y0022267D02*
X0084521Y0022375D01*
X0084177Y0022375D01*
X0084177Y0018000D01*
X0084177Y0018000D01*
X0084177Y0018000D01*
X0084177Y0013625D01*
X0084521Y0013625D01*
X0085202Y0013733D01*
X0085856Y0013946D01*
X0086470Y0014258D01*
X0087027Y0014663D01*
X0087514Y0015150D01*
X0087919Y0015707D01*
X0088231Y0016321D01*
X0088444Y0016976D01*
X0088552Y0017656D01*
X0088552Y0018000D01*
X0088552Y0018344D01*
X0088444Y0019024D01*
X0088231Y0019679D01*
X0087919Y0020293D01*
X0087514Y0020850D01*
X0087027Y0021337D01*
X0086470Y0021742D01*
X0085856Y0022054D01*
X0085202Y0022267D01*
X0085488Y0022174D02*
X0096972Y0022174D01*
X0096972Y0020576D02*
X0087713Y0020576D01*
X0088452Y0018977D02*
X0096972Y0018977D01*
X0096972Y0017379D02*
X0088508Y0017379D01*
X0088552Y0018000D02*
X0084177Y0018000D01*
X0088552Y0018000D01*
X0087956Y0015780D02*
X0096972Y0015780D01*
X0096972Y0014182D02*
X0086319Y0014182D01*
X0084177Y0014182D02*
X0084177Y0014182D01*
X0084177Y0015780D02*
X0084177Y0015780D01*
X0084177Y0017379D02*
X0084177Y0017379D01*
X0084177Y0018000D02*
X0084177Y0018000D01*
X0084177Y0018977D02*
X0084177Y0018977D01*
X0084177Y0020576D02*
X0084177Y0020576D01*
X0084177Y0022174D02*
X0084177Y0022174D01*
X0082867Y0022174D02*
X0079164Y0022174D01*
X0080621Y0020576D02*
X0080641Y0020576D01*
X0079520Y0014182D02*
X0082035Y0014182D01*
X0073086Y0014182D02*
X0071646Y0014182D01*
X0067538Y0012583D02*
X0096972Y0012583D01*
X0096972Y0010985D02*
X0065939Y0010985D01*
X0064341Y0009386D02*
X0096972Y0009386D01*
X0120043Y0022174D02*
X0120347Y0022174D01*
X0126747Y0022174D02*
X0128560Y0022174D01*
X0073442Y0022174D02*
X0071290Y0022174D01*
X0015534Y0041356D02*
X0015025Y0041356D01*
X0077335Y0140464D02*
X0079208Y0140464D01*
X0085209Y0140464D02*
X0087082Y0140464D01*
X0119011Y0121282D02*
X0120347Y0121282D01*
X0127325Y0119683D02*
X0127644Y0119683D01*
X0135321Y0113289D02*
X0136244Y0113289D01*
X0143356Y0118085D02*
X0152795Y0118085D01*
X0151197Y0119683D02*
X0142224Y0119683D01*
X0144081Y0132471D02*
X0145423Y0132471D01*
X0160727Y0132471D02*
X0161171Y0132471D01*
X0168601Y0132471D02*
X0169045Y0132471D01*
X0176475Y0132471D02*
X0176919Y0132471D01*
X0184349Y0132471D02*
X0184793Y0132471D01*
X0170829Y0113289D02*
X0170754Y0113289D01*
X0168424Y0111691D02*
X0173159Y0111691D01*
X0165047Y0110092D02*
X0195398Y0110092D01*
X0195398Y0108494D02*
X0163448Y0108494D01*
X0162318Y0121282D02*
X0165579Y0121282D01*
D19*
X0186539Y0094772D03*
X0162346Y0087469D03*
X0147169Y0077055D03*
X0151106Y0069181D03*
X0111736Y0096740D03*
X0088114Y0094772D03*
X0063921Y0087469D03*
X0048744Y0077055D03*
X0052681Y0069181D03*
X0013311Y0096740D03*
X0052681Y0167606D03*
X0048744Y0175480D03*
X0063921Y0185894D03*
X0088114Y0193197D03*
X0111736Y0195165D03*
X0147169Y0175480D03*
X0151106Y0167606D03*
X0162346Y0185894D03*
X0186539Y0193197D03*
X0013311Y0195165D03*
D20*
X0008390Y0190244D01*
X0008390Y0186701D01*
X0013311Y0195165D02*
X0086146Y0195165D01*
X0088114Y0193197D01*
X0106815Y0190244D02*
X0106815Y0186701D01*
X0106815Y0190244D02*
X0111736Y0195165D01*
X0184571Y0195165D01*
X0186539Y0193197D01*
X0184571Y0096740D02*
X0111736Y0096740D01*
X0106815Y0091819D01*
X0106815Y0088276D01*
X0088114Y0094772D02*
X0086146Y0096740D01*
X0013311Y0096740D01*
X0008390Y0091819D01*
X0008390Y0088276D01*
X0184571Y0096740D02*
X0186539Y0094772D01*
M02*
